solid OpenSCAD_Model
  facet normal -1 0 0
    outer loop
      vertex -12 -35 0
      vertex -12 -35 10
      vertex -12 -6.25 0
    endloop
  endfacet
  facet normal -1 0 0
    outer loop
      vertex -12 -8.25 4.4
      vertex -12 -35 10
      vertex -12 -8.25 10
    endloop
  endfacet
  facet normal -1 0 0
    outer loop
      vertex -12 -6.25 0
      vertex -12 -35 10
      vertex -12 -8.25 4.4
    endloop
  endfacet
  facet normal -1 0 0
    outer loop
      vertex -12 -6.25 4.4
      vertex -12 -6.25 0
      vertex -12 -8.25 4.4
    endloop
  endfacet
  facet normal 0 -1 0
    outer loop
      vertex -12 -35 10
      vertex -12 -35 0
      vertex 11.7157 -35 0
    endloop
  endfacet
  facet normal 0 -1 0
    outer loop
      vertex 11.7157 -35 10
      vertex -12 -35 10
      vertex 11.7157 -35 0
    endloop
  endfacet
  facet normal 0 0 -1
    outer loop
      vertex 1.76777 -23.2322 0
      vertex -12 -6.25 0
      vertex 11.7157 -35 0
    endloop
  endfacet
  facet normal 0 0 -1
    outer loop
      vertex 11.7157 -35 0
      vertex -12 -6.25 0
      vertex 0 -6.25 0
    endloop
  endfacet
  facet normal 0 0 -1
    outer loop
      vertex 11.7157 -35 0
      vertex 0 -6.25 0
      vertex 1.93136 -5.9441 0
    endloop
  endfacet
  facet normal 0 0 -1
    outer loop
      vertex 1.93136 -5.9441 0
      vertex 3.67366 -5.05636 0
      vertex 11.7157 -35 0
    endloop
  endfacet
  facet normal 0 0 -1
    outer loop
      vertex 3.67366 -5.05636 0
      vertex 5.05636 -3.67366 0
      vertex 11.7157 -35 0
    endloop
  endfacet
  facet normal 0 0 -1
    outer loop
      vertex 5.05636 -3.67366 0
      vertex 5.9441 -1.93136 0
      vertex 11.7157 -35 0
    endloop
  endfacet
  facet normal 0 0 -1
    outer loop
      vertex 5.9441 -1.93136 0
      vertex 6.25 0 0
      vertex 11.7157 -35 0
    endloop
  endfacet
  facet normal 0 0 -1
    outer loop
      vertex 6.25 0 0
      vertex 11.7157 35 0
      vertex 11.7157 -35 0
    endloop
  endfacet
  facet normal 0 0 -1
    outer loop
      vertex 5.9441 1.93136 0
      vertex 11.7157 35 0
      vertex 6.25 0 0
    endloop
  endfacet
  facet normal 0 0 -1
    outer loop
      vertex 3.67366 5.05636 0
      vertex -12 35 0
      vertex 5.05636 3.67366 0
    endloop
  endfacet
  facet normal 0 0 -1
    outer loop
      vertex 1.93136 5.9441 0
      vertex -12 35 0
      vertex 3.67366 5.05636 0
    endloop
  endfacet
  facet normal 0 0 -1
    outer loop
      vertex 0 6.25 0
      vertex -12 6.25 0
      vertex -12 35 0
    endloop
  endfacet
  facet normal 0 0 -1
    outer loop
      vertex 0 6.25 0
      vertex -12 35 0
      vertex 1.93136 5.9441 0
    endloop
  endfacet
  facet normal 0 0 -1
    outer loop
      vertex 0 27.5 0
      vertex -12 35 0
      vertex 11.7157 35 0
    endloop
  endfacet
  facet normal 0 0 -1
    outer loop
      vertex 5.05636 3.67366 0
      vertex 11.7157 35 0
      vertex 5.9441 1.93136 0
    endloop
  endfacet
  facet normal 0 0 -1
    outer loop
      vertex 11.7157 -35 0
      vertex 11.7157 35 0
      vertex 25.5 21.2157 0
    endloop
  endfacet
  facet normal 0 0 -1
    outer loop
      vertex 11.7157 -35 0
      vertex 25.5 21.2157 0
      vertex 25.5 -21.2157 0
    endloop
  endfacet
  facet normal 0 0 -1
    outer loop
      vertex -12 -35 0
      vertex -12 -6.25 0
      vertex -2.5 -25 0
    endloop
  endfacet
  facet normal 0 0 -1
    outer loop
      vertex -12 -35 0
      vertex -2.5 -25 0
      vertex -1.76777 -26.7678 0
    endloop
  endfacet
  facet normal 0 0 -1
    outer loop
      vertex -12 -35 0
      vertex -1.76777 -26.7678 0
      vertex 11.7157 -35 0
    endloop
  endfacet
  facet normal 0 0 -1
    outer loop
      vertex -1.76777 -26.7678 0
      vertex 0 -27.5 0
      vertex 11.7157 -35 0
    endloop
  endfacet
  facet normal 0 0 -1
    outer loop
      vertex 1.76777 26.7678 0
      vertex 11.7157 35 0
      vertex 2.5 25 0
    endloop
  endfacet
  facet normal 0 0 -1
    outer loop
      vertex 0 -22.5 0
      vertex -12 -6.25 0
      vertex 1.76777 -23.2322 0
    endloop
  endfacet
  facet normal 0 0 -1
    outer loop
      vertex -1.76777 -23.2322 0
      vertex -12 -6.25 0
      vertex 0 -22.5 0
    endloop
  endfacet
  facet normal 0 0 -1
    outer loop
      vertex 1.76777 -26.7678 0
      vertex 2.5 -25 0
      vertex 11.7157 -35 0
    endloop
  endfacet
  facet normal 0 0 -1
    outer loop
      vertex 2.5 -25 0
      vertex 1.76777 -23.2322 0
      vertex 11.7157 -35 0
    endloop
  endfacet
  facet normal 0 0 -1
    outer loop
      vertex -2.5 -25 0
      vertex -12 -6.25 0
      vertex -1.76777 -23.2322 0
    endloop
  endfacet
  facet normal 0 0 -1
    outer loop
      vertex 5.05636 3.67366 0
      vertex -12 35 0
      vertex -2.5 25 0
    endloop
  endfacet
  facet normal 0 0 -1
    outer loop
      vertex 5.05636 3.67366 0
      vertex -2.5 25 0
      vertex -1.76777 23.2322 0
    endloop
  endfacet
  facet normal 0 0 -1
    outer loop
      vertex 5.05636 3.67366 0
      vertex -1.76777 23.2322 0
      vertex 0 22.5 0
    endloop
  endfacet
  facet normal 0 0 -1
    outer loop
      vertex 5.05636 3.67366 0
      vertex 0 22.5 0
      vertex 1.76777 23.2322 0
    endloop
  endfacet
  facet normal 0 0 -1
    outer loop
      vertex 5.05636 3.67366 0
      vertex 1.76777 23.2322 0
      vertex 11.7157 35 0
    endloop
  endfacet
  facet normal 0 0 -1
    outer loop
      vertex 1.76777 23.2322 0
      vertex 2.5 25 0
      vertex 11.7157 35 0
    endloop
  endfacet
  facet normal 0 0 -1
    outer loop
      vertex 0 27.5 0
      vertex 11.7157 35 0
      vertex 1.76777 26.7678 0
    endloop
  endfacet
  facet normal 0 0 -1
    outer loop
      vertex -1.76777 26.7678 0
      vertex -12 35 0
      vertex 0 27.5 0
    endloop
  endfacet
  facet normal 0 0 -1
    outer loop
      vertex -2.5 25 0
      vertex -12 35 0
      vertex -1.76777 26.7678 0
    endloop
  endfacet
  facet normal 0 0 -1
    outer loop
      vertex 1.76777 -26.7678 0
      vertex 11.7157 -35 0
      vertex 0 -27.5 0
    endloop
  endfacet
  facet normal 0 1 0
    outer loop
      vertex 0 -6.25 4.4
      vertex 0 -6.25 0
      vertex -12 -6.25 4.4
    endloop
  endfacet
  facet normal 0 1 0
    outer loop
      vertex -12 -6.25 4.4
      vertex 0 -6.25 0
      vertex -12 -6.25 0
    endloop
  endfacet
  facet normal 0 0 1
    outer loop
      vertex 2.92549 -7.71388 4.4
      vertex 0 -8.18985 4.4
      vertex 0.994428 -8.18985 4.4
    endloop
  endfacet
  facet normal 0 0 1
    outer loop
      vertex 4.68653 -6.78962 4.4
      vertex 0 -8.18985 4.4
      vertex 2.92549 -7.71388 4.4
    endloop
  endfacet
  facet normal 0 0 1
    outer loop
      vertex 0 6.25 4.4
      vertex 1.93136 5.9441 4.4
      vertex 0.994428 8.18985 4.4
    endloop
  endfacet
  facet normal 0 0 1
    outer loop
      vertex 6.17521 -5.47076 4.4
      vertex 0 -8.18985 4.4
      vertex 4.68653 -6.78962 4.4
    endloop
  endfacet
  facet normal 0 0 1
    outer loop
      vertex 7.30501 -3.83397 4.4
      vertex 0 -8.18985 4.4
      vertex 6.17521 -5.47076 4.4
    endloop
  endfacet
  facet normal 0 0 1
    outer loop
      vertex 8.01027 -1.97435 4.4
      vertex 0 -8.18985 4.4
      vertex 7.30501 -3.83397 4.4
    endloop
  endfacet
  facet normal 0 0 1
    outer loop
      vertex 3.67366 -5.05636 4.4
      vertex 0 -8.18985 4.4
      vertex 8.01027 -1.97435 4.4
    endloop
  endfacet
  facet normal 0 0 1
    outer loop
      vertex 3.67366 -5.05636 4.4
      vertex 1.93136 -5.9441 4.4
      vertex 0 -8.18985 4.4
    endloop
  endfacet
  facet normal 0 0 1
    outer loop
      vertex 5.9441 1.93136 4.4
      vertex 6.25 0 4.4
      vertex 7.30501 3.83397 4.4
    endloop
  endfacet
  facet normal 0 0 1
    outer loop
      vertex 5.05636 3.67366 4.4
      vertex 5.9441 1.93136 4.4
      vertex 6.17521 5.47076 4.4
    endloop
  endfacet
  facet normal 0 0 1
    outer loop
      vertex 3.67366 5.05636 4.4
      vertex 5.05636 3.67366 4.4
      vertex 4.68653 6.78962 4.4
    endloop
  endfacet
  facet normal 0 0 1
    outer loop
      vertex 0 8.18985 4.4
      vertex 0 6.25 4.4
      vertex 0.994428 8.18985 4.4
    endloop
  endfacet
  facet normal 0 0 1
    outer loop
      vertex 6.25 0 4.4
      vertex 5.9441 -1.93136 4.4
      vertex 8.01027 1.97435 4.4
    endloop
  endfacet
  facet normal 0 0 1
    outer loop
      vertex -12 8.25 4.4
      vertex 0 8.18985 4.4
      vertex 0 8.25 4.4
    endloop
  endfacet
  facet normal 0 0 1
    outer loop
      vertex -12 8.25 4.4
      vertex 0 6.25 4.4
      vertex 0 8.18985 4.4
    endloop
  endfacet
  facet normal 0 0 1
    outer loop
      vertex 1.93136 5.9441 4.4
      vertex 3.67366 5.05636 4.4
      vertex 2.92549 7.71388 4.4
    endloop
  endfacet
  facet normal 0 0 1
    outer loop
      vertex 0.994428 8.18985 4.4
      vertex 1.93136 5.9441 4.4
      vertex 2.92549 7.71388 4.4
    endloop
  endfacet
  facet normal 0 0 1
    outer loop
      vertex 0 -8.18985 4.4
      vertex -12 -6.25 4.4
      vertex 0 -8.25 4.4
    endloop
  endfacet
  facet normal 0 0 1
    outer loop
      vertex 2.92549 7.71388 4.4
      vertex 3.67366 5.05636 4.4
      vertex 4.68653 6.78962 4.4
    endloop
  endfacet
  facet normal 0 0 1
    outer loop
      vertex 0 -6.25 4.4
      vertex -12 -6.25 4.4
      vertex 0 -8.18985 4.4
    endloop
  endfacet
  facet normal 0 0 1
    outer loop
      vertex 4.68653 6.78962 4.4
      vertex 5.05636 3.67366 4.4
      vertex 6.17521 5.47076 4.4
    endloop
  endfacet
  facet normal 0 0 1
    outer loop
      vertex 6.17521 5.47076 4.4
      vertex 5.9441 1.93136 4.4
      vertex 7.30501 3.83397 4.4
    endloop
  endfacet
  facet normal 0 0 1
    outer loop
      vertex 7.30501 3.83397 4.4
      vertex 6.25 0 4.4
      vertex 8.01027 1.97435 4.4
    endloop
  endfacet
  facet normal 0 0 1
    outer loop
      vertex 8.01027 1.97435 4.4
      vertex 5.9441 -1.93136 4.4
      vertex 8.25 0 4.4
    endloop
  endfacet
  facet normal 0 0 1
    outer loop
      vertex 8.25 0 4.4
      vertex 5.05636 -3.67366 4.4
      vertex 8.01027 -1.97435 4.4
    endloop
  endfacet
  facet normal 0 0 1
    outer loop
      vertex 5.05636 -3.67366 4.4
      vertex 3.67366 -5.05636 4.4
      vertex 8.01027 -1.97435 4.4
    endloop
  endfacet
  facet normal 0 0 1
    outer loop
      vertex 5.9441 -1.93136 4.4
      vertex 5.05636 -3.67366 4.4
      vertex 8.25 0 4.4
    endloop
  endfacet
  facet normal 0 0 1
    outer loop
      vertex -12 -8.25 4.4
      vertex 0 -8.25 4.4
      vertex -12 -6.25 4.4
    endloop
  endfacet
  facet normal 0 0 1
    outer loop
      vertex -12 6.25 4.4
      vertex 0 6.25 4.4
      vertex -12 8.25 4.4
    endloop
  endfacet
  facet normal 0 0 1
    outer loop
      vertex 1.93136 -5.9441 4.4
      vertex 0 -6.25 4.4
      vertex 0 -8.18985 4.4
    endloop
  endfacet
  facet normal 0 1 0
    outer loop
      vertex 0 -8.25 10
      vertex 0 -8.25 4.4
      vertex -12 -8.25 10
    endloop
  endfacet
  facet normal 0 1 0
    outer loop
      vertex -12 -8.25 10
      vertex 0 -8.25 4.4
      vertex -12 -8.25 4.4
    endloop
  endfacet
  facet normal 0 0 1
    outer loop
      vertex -1.76777 -26.7678 10
      vertex -12 -35 10
      vertex 11.7157 -35 10
    endloop
  endfacet
  facet normal 0 0 1
    outer loop
      vertex 25.2574 -20 10
      vertex -12 -8.25 10
      vertex 25.5 -21.2157 10
    endloop
  endfacet
  facet normal 0 0 1
    outer loop
      vertex 25.5 -20 10
      vertex 25.2574 -20 10
      vertex 25.5 -21.2157 10
    endloop
  endfacet
  facet normal 0 0 1
    outer loop
      vertex 0 -8.18985 10
      vertex 0 -8.25 10
      vertex 0.994428 -8.18985 10
    endloop
  endfacet
  facet normal 0 0 1
    outer loop
      vertex 25.5 21.2157 10
      vertex 25.2574 20 10
      vertex 25.5 20 10
    endloop
  endfacet
  facet normal 0 0 1
    outer loop
      vertex 0 -22.5 10
      vertex 1.76777 -23.2322 10
      vertex -12 -8.25 10
    endloop
  endfacet
  facet normal 0 0 1
    outer loop
      vertex 4.68653 6.78962 10
      vertex 25.2574 20 10
      vertex 25.5 21.2157 10
    endloop
  endfacet
  facet normal 0 0 1
    outer loop
      vertex 1.76777 23.2322 10
      vertex 0 22.5 10
      vertex -12 8.25 10
    endloop
  endfacet
  facet normal 0 0 1
    outer loop
      vertex 11.7157 35 10
      vertex 0 8.25 10
      vertex 25.5 21.2157 10
    endloop
  endfacet
  facet normal 0 0 1
    outer loop
      vertex 0 8.25 10
      vertex 0 8.18985 10
      vertex 25.5 21.2157 10
    endloop
  endfacet
  facet normal 0 0 1
    outer loop
      vertex 0 8.18985 10
      vertex 0.994428 8.18985 10
      vertex 25.5 21.2157 10
    endloop
  endfacet
  facet normal 0 0 1
    outer loop
      vertex 0.994428 8.18985 10
      vertex 2.92549 7.71388 10
      vertex 25.5 21.2157 10
    endloop
  endfacet
  facet normal 0 0 1
    outer loop
      vertex 2.92549 7.71388 10
      vertex 4.68653 6.78962 10
      vertex 25.5 21.2157 10
    endloop
  endfacet
  facet normal 0 0 1
    outer loop
      vertex 1.76777 23.2322 10
      vertex 0 8.25 10
      vertex 11.7157 35 10
    endloop
  endfacet
  facet normal 0 0 1
    outer loop
      vertex -12 8.25 10
      vertex 0 8.25 10
      vertex 1.76777 23.2322 10
    endloop
  endfacet
  facet normal 0 0 1
    outer loop
      vertex 1.76777 -23.2322 10
      vertex 2.5 -25 10
      vertex 11.7157 -35 10
    endloop
  endfacet
  facet normal 0 0 1
    outer loop
      vertex 0 -27.5 10
      vertex -1.76777 -26.7678 10
      vertex 11.7157 -35 10
    endloop
  endfacet
  facet normal 0 0 1
    outer loop
      vertex -12 -8.25 10
      vertex -12 -35 10
      vertex -1.76777 -26.7678 10
    endloop
  endfacet
  facet normal 0 0 1
    outer loop
      vertex 0 27.5 10
      vertex 1.76777 26.7678 10
      vertex 11.7157 35 10
    endloop
  endfacet
  facet normal 0 0 1
    outer loop
      vertex -12 -8.25 10
      vertex -1.76777 -26.7678 10
      vertex -2.5 -25 10
    endloop
  endfacet
  facet normal 0 0 1
    outer loop
      vertex 1.76777 -26.7678 10
      vertex 0 -27.5 10
      vertex 11.7157 -35 10
    endloop
  endfacet
  facet normal 0 0 1
    outer loop
      vertex -12 -8.25 10
      vertex -2.5 -25 10
      vertex -1.76777 -23.2322 10
    endloop
  endfacet
  facet normal 0 0 1
    outer loop
      vertex -12 -8.25 10
      vertex -1.76777 -23.2322 10
      vertex 0 -22.5 10
    endloop
  endfacet
  facet normal 0 0 1
    outer loop
      vertex 25.5 -21.2157 10
      vertex 1.76777 -23.2322 10
      vertex 11.7157 -35 10
    endloop
  endfacet
  facet normal 0 0 1
    outer loop
      vertex 25.5 -21.2157 10
      vertex -12 -8.25 10
      vertex 1.76777 -23.2322 10
    endloop
  endfacet
  facet normal 0 0 1
    outer loop
      vertex 2.5 -25 10
      vertex 1.76777 -26.7678 10
      vertex 11.7157 -35 10
    endloop
  endfacet
  facet normal 0 0 1
    outer loop
      vertex 2.5 25 10
      vertex 1.76777 23.2322 10
      vertex 11.7157 35 10
    endloop
  endfacet
  facet normal 0 0 1
    outer loop
      vertex -12 35 10
      vertex -12 8.25 10
      vertex -1.76777 23.2322 10
    endloop
  endfacet
  facet normal 0 0 1
    outer loop
      vertex 1.76777 26.7678 10
      vertex 2.5 25 10
      vertex 11.7157 35 10
    endloop
  endfacet
  facet normal 0 0 1
    outer loop
      vertex -12 35 10
      vertex -1.76777 23.2322 10
      vertex -2.5 25 10
    endloop
  endfacet
  facet normal 0 0 1
    outer loop
      vertex -12 35 10
      vertex -1.76777 26.7678 10
      vertex 11.7157 35 10
    endloop
  endfacet
  facet normal 0 0 1
    outer loop
      vertex -12 35 10
      vertex -2.5 25 10
      vertex -1.76777 26.7678 10
    endloop
  endfacet
  facet normal 0 0 1
    outer loop
      vertex -1.76777 26.7678 10
      vertex 0 27.5 10
      vertex 11.7157 35 10
    endloop
  endfacet
  facet normal 0 0 1
    outer loop
      vertex 4.68653 6.78962 10
      vertex 6.17521 5.47076 10
      vertex 25.2574 20 10
    endloop
  endfacet
  facet normal 0 0 1
    outer loop
      vertex -1.76777 23.2322 10
      vertex -12 8.25 10
      vertex 0 22.5 10
    endloop
  endfacet
  facet normal 0 0 1
    outer loop
      vertex 25.2574 -20 10
      vertex 0 -8.25 10
      vertex -12 -8.25 10
    endloop
  endfacet
  facet normal 0 0 1
    outer loop
      vertex 25.2574 -20 10
      vertex 0.994428 -8.18985 10
      vertex 0 -8.25 10
    endloop
  endfacet
  facet normal 0 0 1
    outer loop
      vertex 25.2574 -20 10
      vertex 2.92549 -7.71388 10
      vertex 0.994428 -8.18985 10
    endloop
  endfacet
  facet normal 0 0 1
    outer loop
      vertex 25.2574 -20 10
      vertex 4.68653 -6.78962 10
      vertex 2.92549 -7.71388 10
    endloop
  endfacet
  facet normal 0 0 1
    outer loop
      vertex 25.2574 -20 10
      vertex 6.17521 -5.47076 10
      vertex 4.68653 -6.78962 10
    endloop
  endfacet
  facet normal 0 0 1
    outer loop
      vertex 25.2574 -20 10
      vertex 7.30501 -3.83397 10
      vertex 6.17521 -5.47076 10
    endloop
  endfacet
  facet normal 0 0 1
    outer loop
      vertex 25.2574 -20 10
      vertex 8.01027 -1.97435 10
      vertex 7.30501 -3.83397 10
    endloop
  endfacet
  facet normal 0 0 1
    outer loop
      vertex 25.2574 -20 10
      vertex 8.25 0 10
      vertex 8.01027 -1.97435 10
    endloop
  endfacet
  facet normal 0 0 1
    outer loop
      vertex 25.2574 -20 10
      vertex 8.01027 1.97435 10
      vertex 8.25 0 10
    endloop
  endfacet
  facet normal 0 0 1
    outer loop
      vertex 25.2574 -20 10
      vertex 7.30501 3.83397 10
      vertex 8.01027 1.97435 10
    endloop
  endfacet
  facet normal 0 0 1
    outer loop
      vertex 25.2574 -20 10
      vertex 6.17521 5.47076 10
      vertex 7.30501 3.83397 10
    endloop
  endfacet
  facet normal 0 0 1
    outer loop
      vertex 25.2574 -20 10
      vertex 25.2574 20 10
      vertex 6.17521 5.47076 10
    endloop
  endfacet
  facet normal 0.707107 -0.707107 0
    outer loop
      vertex 25.5 -21.2157 0
      vertex 25.5 -21.2157 10
      vertex 11.7157 -35 10
    endloop
  endfacet
  facet normal 0.707107 -0.707107 0
    outer loop
      vertex 11.7157 -35 0
      vertex 25.5 -21.2157 0
      vertex 11.7157 -35 10
    endloop
  endfacet
  facet normal 1 0 0
    outer loop
      vertex 25.5 -20 6
      vertex 25.5 -21.2157 0
      vertex 25.5 21.2157 0
    endloop
  endfacet
  facet normal 1 0 0
    outer loop
      vertex 25.5 -20 6
      vertex 25.5 -20 10
      vertex 25.5 -21.2157 10
    endloop
  endfacet
  facet normal 1 0 0
    outer loop
      vertex 25.5 21.2157 10
      vertex 25.5 20 10
      vertex 25.5 21.2157 0
    endloop
  endfacet
  facet normal 1 0 0
    outer loop
      vertex 25.5 20 10
      vertex 25.5 20 6
      vertex 25.5 21.2157 0
    endloop
  endfacet
  facet normal 1 0 0
    outer loop
      vertex 25.5 -21.2157 10
      vertex 25.5 -21.2157 0
      vertex 25.5 -20 6
    endloop
  endfacet
  facet normal 1 0 0
    outer loop
      vertex 25.5 20 6
      vertex 25.5 -20 6
      vertex 25.5 21.2157 0
    endloop
  endfacet
  facet normal 0.707107 0.707107 0
    outer loop
      vertex 25.5 21.2157 10
      vertex 25.5 21.2157 0
      vertex 11.7157 35 10
    endloop
  endfacet
  facet normal 0.707107 0.707107 0
    outer loop
      vertex 11.7157 35 10
      vertex 25.5 21.2157 0
      vertex 11.7157 35 0
    endloop
  endfacet
  facet normal 0 1 0
    outer loop
      vertex -12 35 0
      vertex -12 35 10
      vertex 11.7157 35 0
    endloop
  endfacet
  facet normal 0 1 0
    outer loop
      vertex 11.7157 35 0
      vertex -12 35 10
      vertex 11.7157 35 10
    endloop
  endfacet
  facet normal -1 0 0
    outer loop
      vertex -12 6.25 0
      vertex -12 6.25 4.4
      vertex -12 35 0
    endloop
  endfacet
  facet normal -1 0 0
    outer loop
      vertex -12 35 0
      vertex -12 6.25 4.4
      vertex -12 8.25 4.4
    endloop
  endfacet
  facet normal -1 0 0
    outer loop
      vertex -12 35 0
      vertex -12 8.25 4.4
      vertex -12 8.25 10
    endloop
  endfacet
  facet normal -1 0 0
    outer loop
      vertex -12 35 0
      vertex -12 8.25 10
      vertex -12 35 10
    endloop
  endfacet
  facet normal 0 -1 0
    outer loop
      vertex 0 6.25 0
      vertex 0 6.25 4.4
      vertex -12 6.25 4.4
    endloop
  endfacet
  facet normal 0 -1 0
    outer loop
      vertex -12 6.25 0
      vertex 0 6.25 0
      vertex -12 6.25 4.4
    endloop
  endfacet
  facet normal -0.156435 -0.987688 0
    outer loop
      vertex 1.93136 5.9441 0
      vertex 1.93136 5.9441 4.4
      vertex 0 6.25 4.4
    endloop
  endfacet
  facet normal -0.156435 -0.987688 0
    outer loop
      vertex 0 6.25 0
      vertex 1.93136 5.9441 0
      vertex 0 6.25 4.4
    endloop
  endfacet
  facet normal -0.45399 -0.891007 0
    outer loop
      vertex 3.67366 5.05636 0
      vertex 3.67366 5.05636 4.4
      vertex 1.93136 5.9441 4.4
    endloop
  endfacet
  facet normal -0.45399 -0.891007 0
    outer loop
      vertex 1.93136 5.9441 0
      vertex 3.67366 5.05636 0
      vertex 1.93136 5.9441 4.4
    endloop
  endfacet
  facet normal -0.707107 -0.707107 0
    outer loop
      vertex 5.05636 3.67366 0
      vertex 5.05636 3.67366 4.4
      vertex 3.67366 5.05636 4.4
    endloop
  endfacet
  facet normal -0.707107 -0.707107 0
    outer loop
      vertex 3.67366 5.05636 0
      vertex 5.05636 3.67366 0
      vertex 3.67366 5.05636 4.4
    endloop
  endfacet
  facet normal -0.891007 -0.45399 0
    outer loop
      vertex 5.9441 1.93136 4.4
      vertex 5.05636 3.67366 4.4
      vertex 5.9441 1.93136 0
    endloop
  endfacet
  facet normal -0.891007 -0.45399 0
    outer loop
      vertex 5.9441 1.93136 0
      vertex 5.05636 3.67366 4.4
      vertex 5.05636 3.67366 0
    endloop
  endfacet
  facet normal -0.987688 -0.156435 0
    outer loop
      vertex 6.25 0 4.4
      vertex 5.9441 1.93136 4.4
      vertex 6.25 0 0
    endloop
  endfacet
  facet normal -0.987688 -0.156435 0
    outer loop
      vertex 6.25 0 0
      vertex 5.9441 1.93136 4.4
      vertex 5.9441 1.93136 0
    endloop
  endfacet
  facet normal -0.987688 0.156435 0
    outer loop
      vertex 6.25 0 4.4
      vertex 6.25 0 0
      vertex 5.9441 -1.93136 4.4
    endloop
  endfacet
  facet normal -0.987688 0.156435 0
    outer loop
      vertex 5.9441 -1.93136 4.4
      vertex 6.25 0 0
      vertex 5.9441 -1.93136 0
    endloop
  endfacet
  facet normal -0.891007 0.45399 0
    outer loop
      vertex 5.9441 -1.93136 4.4
      vertex 5.9441 -1.93136 0
      vertex 5.05636 -3.67366 4.4
    endloop
  endfacet
  facet normal -0.891007 0.45399 0
    outer loop
      vertex 5.05636 -3.67366 4.4
      vertex 5.9441 -1.93136 0
      vertex 5.05636 -3.67366 0
    endloop
  endfacet
  facet normal -0.707107 0.707107 0
    outer loop
      vertex 5.05636 -3.67366 4.4
      vertex 5.05636 -3.67366 0
      vertex 3.67366 -5.05636 4.4
    endloop
  endfacet
  facet normal -0.707107 0.707107 0
    outer loop
      vertex 3.67366 -5.05636 4.4
      vertex 5.05636 -3.67366 0
      vertex 3.67366 -5.05636 0
    endloop
  endfacet
  facet normal -0.45399 0.891007 0
    outer loop
      vertex 3.67366 -5.05636 4.4
      vertex 3.67366 -5.05636 0
      vertex 1.93136 -5.9441 4.4
    endloop
  endfacet
  facet normal -0.45399 0.891007 0
    outer loop
      vertex 1.93136 -5.9441 4.4
      vertex 3.67366 -5.05636 0
      vertex 1.93136 -5.9441 0
    endloop
  endfacet
  facet normal -0.156435 0.987688 0
    outer loop
      vertex 1.93136 -5.9441 4.4
      vertex 1.93136 -5.9441 0
      vertex 0 -6.25 4.4
    endloop
  endfacet
  facet normal -0.156435 0.987688 0
    outer loop
      vertex 0 -6.25 4.4
      vertex 1.93136 -5.9441 0
      vertex 0 -6.25 0
    endloop
  endfacet
  facet normal 0.92388 -0.382683 0
    outer loop
      vertex -1.76777 -23.2322 0
      vertex -1.76777 -23.2322 10
      vertex -2.5 -25 10
    endloop
  endfacet
  facet normal 0.92388 -0.382683 0
    outer loop
      vertex -2.5 -25 0
      vertex -1.76777 -23.2322 0
      vertex -2.5 -25 10
    endloop
  endfacet
  facet normal 0.92388 0.382683 0
    outer loop
      vertex -2.5 -25 10
      vertex -1.76777 -26.7678 10
      vertex -1.76777 -26.7678 0
    endloop
  endfacet
  facet normal 0.92388 0.382683 0
    outer loop
      vertex -2.5 -25 0
      vertex -2.5 -25 10
      vertex -1.76777 -26.7678 0
    endloop
  endfacet
  facet normal 0.382683 -0.92388 0
    outer loop
      vertex 0 -22.5 0
      vertex 0 -22.5 10
      vertex -1.76777 -23.2322 10
    endloop
  endfacet
  facet normal 0.382683 -0.92388 0
    outer loop
      vertex -1.76777 -23.2322 0
      vertex 0 -22.5 0
      vertex -1.76777 -23.2322 10
    endloop
  endfacet
  facet normal -0.382683 -0.92388 0
    outer loop
      vertex 1.76777 -23.2322 0
      vertex 1.76777 -23.2322 10
      vertex 0 -22.5 10
    endloop
  endfacet
  facet normal -0.382683 -0.92388 0
    outer loop
      vertex 0 -22.5 0
      vertex 1.76777 -23.2322 0
      vertex 0 -22.5 10
    endloop
  endfacet
  facet normal -0.92388 -0.382683 0
    outer loop
      vertex 2.5 -25 10
      vertex 1.76777 -23.2322 10
      vertex 2.5 -25 0
    endloop
  endfacet
  facet normal -0.92388 -0.382683 0
    outer loop
      vertex 2.5 -25 0
      vertex 1.76777 -23.2322 10
      vertex 1.76777 -23.2322 0
    endloop
  endfacet
  facet normal -0.92388 0.382683 0
    outer loop
      vertex 2.5 -25 10
      vertex 2.5 -25 0
      vertex 1.76777 -26.7678 10
    endloop
  endfacet
  facet normal -0.92388 0.382683 0
    outer loop
      vertex 1.76777 -26.7678 10
      vertex 2.5 -25 0
      vertex 1.76777 -26.7678 0
    endloop
  endfacet
  facet normal -0.382683 0.92388 0
    outer loop
      vertex 1.76777 -26.7678 10
      vertex 1.76777 -26.7678 0
      vertex 0 -27.5 10
    endloop
  endfacet
  facet normal -0.382683 0.92388 0
    outer loop
      vertex 0 -27.5 10
      vertex 1.76777 -26.7678 0
      vertex 0 -27.5 0
    endloop
  endfacet
  facet normal 0.382683 0.92388 0
    outer loop
      vertex 0 -27.5 10
      vertex 0 -27.5 0
      vertex -1.76777 -26.7678 10
    endloop
  endfacet
  facet normal 0.382683 0.92388 0
    outer loop
      vertex -1.76777 -26.7678 10
      vertex 0 -27.5 0
      vertex -1.76777 -26.7678 0
    endloop
  endfacet
  facet normal 0.92388 -0.382683 0
    outer loop
      vertex -1.76777 26.7678 0
      vertex -1.76777 26.7678 10
      vertex -2.5 25 10
    endloop
  endfacet
  facet normal 0.92388 -0.382683 0
    outer loop
      vertex -2.5 25 0
      vertex -1.76777 26.7678 0
      vertex -2.5 25 10
    endloop
  endfacet
  facet normal 0.92388 0.382683 0
    outer loop
      vertex -2.5 25 10
      vertex -1.76777 23.2322 10
      vertex -1.76777 23.2322 0
    endloop
  endfacet
  facet normal 0.92388 0.382683 0
    outer loop
      vertex -2.5 25 0
      vertex -2.5 25 10
      vertex -1.76777 23.2322 0
    endloop
  endfacet
  facet normal 0.382683 -0.92388 0
    outer loop
      vertex 0 27.5 0
      vertex 0 27.5 10
      vertex -1.76777 26.7678 10
    endloop
  endfacet
  facet normal 0.382683 -0.92388 0
    outer loop
      vertex -1.76777 26.7678 0
      vertex 0 27.5 0
      vertex -1.76777 26.7678 10
    endloop
  endfacet
  facet normal -0.382683 -0.92388 0
    outer loop
      vertex 1.76777 26.7678 0
      vertex 1.76777 26.7678 10
      vertex 0 27.5 10
    endloop
  endfacet
  facet normal -0.382683 -0.92388 0
    outer loop
      vertex 0 27.5 0
      vertex 1.76777 26.7678 0
      vertex 0 27.5 10
    endloop
  endfacet
  facet normal -0.92388 -0.382683 0
    outer loop
      vertex 2.5 25 10
      vertex 1.76777 26.7678 10
      vertex 2.5 25 0
    endloop
  endfacet
  facet normal -0.92388 -0.382683 0
    outer loop
      vertex 2.5 25 0
      vertex 1.76777 26.7678 10
      vertex 1.76777 26.7678 0
    endloop
  endfacet
  facet normal -0.92388 0.382683 0
    outer loop
      vertex 2.5 25 10
      vertex 2.5 25 0
      vertex 1.76777 23.2322 10
    endloop
  endfacet
  facet normal -0.92388 0.382683 0
    outer loop
      vertex 1.76777 23.2322 10
      vertex 2.5 25 0
      vertex 1.76777 23.2322 0
    endloop
  endfacet
  facet normal -0.382683 0.92388 0
    outer loop
      vertex 1.76777 23.2322 10
      vertex 1.76777 23.2322 0
      vertex 0 22.5 10
    endloop
  endfacet
  facet normal -0.382683 0.92388 0
    outer loop
      vertex 0 22.5 10
      vertex 1.76777 23.2322 0
      vertex 0 22.5 0
    endloop
  endfacet
  facet normal 0.382683 0.92388 0
    outer loop
      vertex 0 22.5 10
      vertex 0 22.5 0
      vertex -1.76777 23.2322 10
    endloop
  endfacet
  facet normal 0.382683 0.92388 0
    outer loop
      vertex -1.76777 23.2322 10
      vertex 0 22.5 0
      vertex -1.76777 23.2322 0
    endloop
  endfacet
  facet normal -1 0 0
    outer loop
      vertex 0 -8.18985 10
      vertex 0 -8.18985 4.4
      vertex 0 -8.25 10
    endloop
  endfacet
  facet normal -1 0 0
    outer loop
      vertex 0 -8.25 10
      vertex 0 -8.18985 4.4
      vertex 0 -8.25 4.4
    endloop
  endfacet
  facet normal 0 -1 0
    outer loop
      vertex 0 8.25 4.4
      vertex 0 8.25 10
      vertex -12 8.25 10
    endloop
  endfacet
  facet normal 0 -1 0
    outer loop
      vertex -12 8.25 4.4
      vertex 0 8.25 4.4
      vertex -12 8.25 10
    endloop
  endfacet
  facet normal -1 0 0
    outer loop
      vertex 0 8.25 10
      vertex 0 8.25 4.4
      vertex 0 8.18985 10
    endloop
  endfacet
  facet normal -1 0 0
    outer loop
      vertex 0 8.18985 10
      vertex 0 8.25 4.4
      vertex 0 8.18985 4.4
    endloop
  endfacet
  facet normal 0 -1 0
    outer loop
      vertex 0.994428 8.18985 4.4
      vertex 0.994428 8.18985 10
      vertex 0 8.18985 10
    endloop
  endfacet
  facet normal 0 -1 0
    outer loop
      vertex 0 8.18985 4.4
      vertex 0.994428 8.18985 4.4
      vertex 0 8.18985 10
    endloop
  endfacet
  facet normal -0.239316 -0.970942 0
    outer loop
      vertex 2.92549 7.71388 4.4
      vertex 2.92549 7.71388 10
      vertex 0.994428 8.18985 10
    endloop
  endfacet
  facet normal -0.239316 -0.970942 0
    outer loop
      vertex 0.994428 8.18985 4.4
      vertex 2.92549 7.71388 4.4
      vertex 0.994428 8.18985 10
    endloop
  endfacet
  facet normal -0.464723 -0.885456 0
    outer loop
      vertex 4.68653 6.78962 4.4
      vertex 4.68653 6.78962 10
      vertex 2.92549 7.71388 10
    endloop
  endfacet
  facet normal -0.464723 -0.885456 0
    outer loop
      vertex 2.92549 7.71388 4.4
      vertex 4.68653 6.78962 4.4
      vertex 2.92549 7.71388 10
    endloop
  endfacet
  facet normal -0.663123 -0.748511 0
    outer loop
      vertex 6.17521 5.47076 4.4
      vertex 6.17521 5.47076 10
      vertex 4.68653 6.78962 10
    endloop
  endfacet
  facet normal -0.663123 -0.748511 0
    outer loop
      vertex 4.68653 6.78962 4.4
      vertex 6.17521 5.47076 4.4
      vertex 4.68653 6.78962 10
    endloop
  endfacet
  facet normal -0.822984 -0.568065 0
    outer loop
      vertex 7.30501 3.83397 10
      vertex 6.17521 5.47076 10
      vertex 7.30501 3.83397 4.4
    endloop
  endfacet
  facet normal -0.822984 -0.568065 0
    outer loop
      vertex 7.30501 3.83397 4.4
      vertex 6.17521 5.47076 10
      vertex 6.17521 5.47076 4.4
    endloop
  endfacet
  facet normal -0.935016 -0.354605 0
    outer loop
      vertex 8.01027 1.97435 10
      vertex 7.30501 3.83397 10
      vertex 8.01027 1.97435 4.4
    endloop
  endfacet
  facet normal -0.935016 -0.354605 0
    outer loop
      vertex 8.01027 1.97435 4.4
      vertex 7.30501 3.83397 10
      vertex 7.30501 3.83397 4.4
    endloop
  endfacet
  facet normal -0.992709 -0.120537 0
    outer loop
      vertex 8.25 0 10
      vertex 8.01027 1.97435 10
      vertex 8.25 0 4.4
    endloop
  endfacet
  facet normal -0.992709 -0.120537 0
    outer loop
      vertex 8.25 0 4.4
      vertex 8.01027 1.97435 10
      vertex 8.01027 1.97435 4.4
    endloop
  endfacet
  facet normal -0.992709 0.120537 0
    outer loop
      vertex 8.25 0 10
      vertex 8.25 0 4.4
      vertex 8.01027 -1.97435 10
    endloop
  endfacet
  facet normal -0.992709 0.120537 0
    outer loop
      vertex 8.01027 -1.97435 10
      vertex 8.25 0 4.4
      vertex 8.01027 -1.97435 4.4
    endloop
  endfacet
  facet normal -0.935016 0.354605 0
    outer loop
      vertex 8.01027 -1.97435 10
      vertex 8.01027 -1.97435 4.4
      vertex 7.30501 -3.83397 10
    endloop
  endfacet
  facet normal -0.935016 0.354605 0
    outer loop
      vertex 7.30501 -3.83397 10
      vertex 8.01027 -1.97435 4.4
      vertex 7.30501 -3.83397 4.4
    endloop
  endfacet
  facet normal -0.822984 0.568065 0
    outer loop
      vertex 7.30501 -3.83397 10
      vertex 7.30501 -3.83397 4.4
      vertex 6.17521 -5.47076 10
    endloop
  endfacet
  facet normal -0.822984 0.568065 0
    outer loop
      vertex 6.17521 -5.47076 10
      vertex 7.30501 -3.83397 4.4
      vertex 6.17521 -5.47076 4.4
    endloop
  endfacet
  facet normal -0.663123 0.748511 0
    outer loop
      vertex 6.17521 -5.47076 10
      vertex 6.17521 -5.47076 4.4
      vertex 4.68653 -6.78962 10
    endloop
  endfacet
  facet normal -0.663123 0.748511 0
    outer loop
      vertex 4.68653 -6.78962 10
      vertex 6.17521 -5.47076 4.4
      vertex 4.68653 -6.78962 4.4
    endloop
  endfacet
  facet normal -0.464723 0.885456 0
    outer loop
      vertex 4.68653 -6.78962 10
      vertex 4.68653 -6.78962 4.4
      vertex 2.92549 -7.71388 10
    endloop
  endfacet
  facet normal -0.464723 0.885456 0
    outer loop
      vertex 2.92549 -7.71388 10
      vertex 4.68653 -6.78962 4.4
      vertex 2.92549 -7.71388 4.4
    endloop
  endfacet
  facet normal -0.239316 0.970942 0
    outer loop
      vertex 2.92549 -7.71388 10
      vertex 2.92549 -7.71388 4.4
      vertex 0.994428 -8.18985 10
    endloop
  endfacet
  facet normal -0.239316 0.970942 0
    outer loop
      vertex 0.994428 -8.18985 10
      vertex 2.92549 -7.71388 4.4
      vertex 0.994428 -8.18985 4.4
    endloop
  endfacet
  facet normal 0 1 0
    outer loop
      vertex 0.994428 -8.18985 10
      vertex 0.994428 -8.18985 4.4
      vertex 0 -8.18985 10
    endloop
  endfacet
  facet normal 0 1 0
    outer loop
      vertex 0 -8.18985 10
      vertex 0.994428 -8.18985 4.4
      vertex 0 -8.18985 4.4
    endloop
  endfacet
  facet normal 0 1 0
    outer loop
      vertex 25.2574 20 10
      vertex 30.9497 20 15.6924
      vertex 25.5 20 10
    endloop
  endfacet
  facet normal 0 1 0
    outer loop
      vertex 25.5 20 10
      vertex 30.9497 20 15.6924
      vertex 33.0711 20 13.5711
    endloop
  endfacet
  facet normal 0 1 0
    outer loop
      vertex 25.5 20 10
      vertex 33.0711 20 13.5711
      vertex 25.5 20 6
    endloop
  endfacet
  facet normal -0.707107 0 0.707107
    outer loop
      vertex 28.4304 4.15823 13.173
      vertex 25.2574 20 10
      vertex 28.1213 0 12.864
    endloop
  endfacet
  facet normal -0.707107 0 0.707107
    outer loop
      vertex 30.8222 -11.7557 15.5649
      vertex 30.9497 -20 15.6924
      vertex 30.9497 -11.956 15.6924
    endloop
  endfacet
  facet normal -0.707107 0 0.707107
    outer loop
      vertex 29.344 -8.13473 14.0866
      vertex 30.9497 -20 15.6924
      vertex 30.8222 -11.7557 15.5649
    endloop
  endfacet
  facet normal -0.707107 0 0.707107
    outer loop
      vertex 29.182 -16 13.9246
      vertex 30.9497 -20 15.6924
      vertex 28.4304 -4.15823 13.173
    endloop
  endfacet
  facet normal -0.707107 0 0.707107
    outer loop
      vertex 25.2574 -20 10
      vertex 28.4304 -4.15823 13.173
      vertex 25.2574 20 10
    endloop
  endfacet
  facet normal -0.707107 0 0.707107
    outer loop
      vertex 28.4491 -14.5734 13.1917
      vertex 28.4304 -4.15823 13.173
      vertex 27.2632 -15.1183 12.0059
    endloop
  endfacet
  facet normal -0.707107 0 0.707107
    outer loop
      vertex 25.2574 20 10
      vertex 28.4304 4.15823 13.173
      vertex 29.344 8.13473 14.0866
    endloop
  endfacet
  facet normal -0.707107 0 0.707107
    outer loop
      vertex 28.4491 14.5734 13.1917
      vertex 30.9497 11.956 15.6924
      vertex 29.182 16 13.9246
    endloop
  endfacet
  facet normal -0.707107 0 0.707107
    outer loop
      vertex 29.182 16 13.9246
      vertex 30.9497 11.956 15.6924
      vertex 30.9497 20 15.6924
    endloop
  endfacet
  facet normal -0.707107 0 0.707107
    outer loop
      vertex 25.2574 -20 10
      vertex 30.9497 -20 15.6924
      vertex 27.2632 -16.8817 12.0059
    endloop
  endfacet
  facet normal -0.707107 0 0.707107
    outer loop
      vertex 25.2574 -20 10
      vertex 27.2632 -16.8817 12.0059
      vertex 27.2632 -15.1183 12.0059
    endloop
  endfacet
  facet normal -0.707107 0 0.707107
    outer loop
      vertex 25.2574 -20 10
      vertex 27.2632 -15.1183 12.0059
      vertex 28.4304 -4.15823 13.173
    endloop
  endfacet
  facet normal -0.707107 0 0.707107
    outer loop
      vertex 28.4491 17.4266 13.1917
      vertex 25.2574 20 10
      vertex 27.2632 16.8817 12.0059
    endloop
  endfacet
  facet normal -0.707107 0 0.707107
    outer loop
      vertex 28.4491 -17.4266 13.1917
      vertex 30.9497 -20 15.6924
      vertex 29.182 -16 13.9246
    endloop
  endfacet
  facet normal -0.707107 0 0.707107
    outer loop
      vertex 28.4491 -14.5734 13.1917
      vertex 29.182 -16 13.9246
      vertex 28.4304 -4.15823 13.173
    endloop
  endfacet
  facet normal -0.707107 0 0.707107
    outer loop
      vertex 27.2632 -16.8817 12.0059
      vertex 30.9497 -20 15.6924
      vertex 28.4491 -17.4266 13.1917
    endloop
  endfacet
  facet normal -0.707107 0 0.707107
    outer loop
      vertex 29.344 8.13473 14.0866
      vertex 30.8222 11.7557 15.5649
      vertex 27.2632 15.1183 12.0059
    endloop
  endfacet
  facet normal -0.707107 0 0.707107
    outer loop
      vertex 29.344 8.13473 14.0866
      vertex 27.2632 15.1183 12.0059
      vertex 25.2574 20 10
    endloop
  endfacet
  facet normal -0.707107 0 0.707107
    outer loop
      vertex 27.2632 15.1183 12.0059
      vertex 27.2632 16.8817 12.0059
      vertex 25.2574 20 10
    endloop
  endfacet
  facet normal -0.707107 0 0.707107
    outer loop
      vertex 28.4491 14.5734 13.1917
      vertex 30.8222 11.7557 15.5649
      vertex 30.9497 11.956 15.6924
    endloop
  endfacet
  facet normal -0.707107 0 0.707107
    outer loop
      vertex 25.2574 20 10
      vertex 28.4491 17.4266 13.1917
      vertex 30.9497 20 15.6924
    endloop
  endfacet
  facet normal -0.707107 0 0.707107
    outer loop
      vertex 28.4491 17.4266 13.1917
      vertex 29.182 16 13.9246
      vertex 30.9497 20 15.6924
    endloop
  endfacet
  facet normal -0.707107 0 0.707107
    outer loop
      vertex 27.2632 15.1183 12.0059
      vertex 30.8222 11.7557 15.5649
      vertex 28.4491 14.5734 13.1917
    endloop
  endfacet
  facet normal -0.707107 0 0.707107
    outer loop
      vertex 28.4304 -4.15823 13.173
      vertex 30.9497 -20 15.6924
      vertex 29.344 -8.13473 14.0866
    endloop
  endfacet
  facet normal -0.707107 0 0.707107
    outer loop
      vertex 28.1213 0 12.864
      vertex 25.2574 20 10
      vertex 28.4304 -4.15823 13.173
    endloop
  endfacet
  facet normal 0 -1 0
    outer loop
      vertex 30.9497 -20 15.6924
      vertex 25.2574 -20 10
      vertex 25.5 -20 10
    endloop
  endfacet
  facet normal 0 -1 0
    outer loop
      vertex 25.5 -20 6
      vertex 30.9497 -20 15.6924
      vertex 25.5 -20 10
    endloop
  endfacet
  facet normal 0 -1 0
    outer loop
      vertex 25.5 -20 6
      vertex 33.0711 -20 13.5711
      vertex 30.9497 -20 15.6924
    endloop
  endfacet
  facet normal 0.707107 0 -0.707107
    outer loop
      vertex 29.3845 -15.1183 9.88455
      vertex 25.5 -20 6
      vertex 25.5 20 6
    endloop
  endfacet
  facet normal 0.707107 0 -0.707107
    outer loop
      vertex 30.5517 -4.15823 11.0517
      vertex 33.0711 -20 13.5711
      vertex 25.5 20 6
    endloop
  endfacet
  facet normal 0.707107 0 -0.707107
    outer loop
      vertex 30.5704 14.5734 11.0704
      vertex 31.3033 16 11.8033
      vertex 33.0711 11.956 13.5711
    endloop
  endfacet
  facet normal 0.707107 0 -0.707107
    outer loop
      vertex 29.3845 15.1183 9.88455
      vertex 31.4653 8.13473 11.9653
      vertex 25.5 20 6
    endloop
  endfacet
  facet normal 0.707107 0 -0.707107
    outer loop
      vertex 31.4653 8.13473 11.9653
      vertex 30.5517 4.15823 11.0517
      vertex 25.5 20 6
    endloop
  endfacet
  facet normal 0.707107 0 -0.707107
    outer loop
      vertex 32.9435 -11.7557 13.4435
      vertex 33.0711 -11.956 13.5711
      vertex 33.0711 -20 13.5711
    endloop
  endfacet
  facet normal 0.707107 0 -0.707107
    outer loop
      vertex 30.5517 4.15823 11.0517
      vertex 30.2426 0 10.7426
      vertex 25.5 20 6
    endloop
  endfacet
  facet normal 0.707107 0 -0.707107
    outer loop
      vertex 30.2426 0 10.7426
      vertex 30.5517 -4.15823 11.0517
      vertex 25.5 20 6
    endloop
  endfacet
  facet normal 0.707107 0 -0.707107
    outer loop
      vertex 30.5704 -17.4266 11.0704
      vertex 31.3033 -16 11.8033
      vertex 33.0711 -20 13.5711
    endloop
  endfacet
  facet normal 0.707107 0 -0.707107
    outer loop
      vertex 30.5704 -14.5734 11.0704
      vertex 29.3845 -15.1183 9.88455
      vertex 25.5 20 6
    endloop
  endfacet
  facet normal 0.707107 0 -0.707107
    outer loop
      vertex 29.3845 -16.8817 9.88455
      vertex 25.5 -20 6
      vertex 29.3845 -15.1183 9.88455
    endloop
  endfacet
  facet normal 0.707107 0 -0.707107
    outer loop
      vertex 33.0711 -20 13.5711
      vertex 25.5 -20 6
      vertex 29.3845 -16.8817 9.88455
    endloop
  endfacet
  facet normal 0.707107 0 -0.707107
    outer loop
      vertex 33.0711 -20 13.5711
      vertex 29.3845 -16.8817 9.88455
      vertex 30.5704 -17.4266 11.0704
    endloop
  endfacet
  facet normal 0.707107 0 -0.707107
    outer loop
      vertex 33.0711 -20 13.5711
      vertex 31.3033 -16 11.8033
      vertex 25.5 20 6
    endloop
  endfacet
  facet normal 0.707107 0 -0.707107
    outer loop
      vertex 29.3845 15.1183 9.88455
      vertex 30.5704 14.5734 11.0704
      vertex 32.9435 11.7557 13.4435
    endloop
  endfacet
  facet normal 0.707107 0 -0.707107
    outer loop
      vertex 31.3033 -16 11.8033
      vertex 30.5704 -14.5734 11.0704
      vertex 25.5 20 6
    endloop
  endfacet
  facet normal 0.707107 0 -0.707107
    outer loop
      vertex 33.0711 20 13.5711
      vertex 29.3845 16.8817 9.88455
      vertex 25.5 20 6
    endloop
  endfacet
  facet normal 0.707107 0 -0.707107
    outer loop
      vertex 32.9435 11.7557 13.4435
      vertex 31.4653 8.13473 11.9653
      vertex 29.3845 15.1183 9.88455
    endloop
  endfacet
  facet normal 0.707107 0 -0.707107
    outer loop
      vertex 33.0711 11.956 13.5711
      vertex 32.9435 11.7557 13.4435
      vertex 30.5704 14.5734 11.0704
    endloop
  endfacet
  facet normal 0.707107 0 -0.707107
    outer loop
      vertex 33.0711 20 13.5711
      vertex 33.0711 11.956 13.5711
      vertex 31.3033 16 11.8033
    endloop
  endfacet
  facet normal 0.707107 0 -0.707107
    outer loop
      vertex 33.0711 20 13.5711
      vertex 30.5704 17.4266 11.0704
      vertex 29.3845 16.8817 9.88455
    endloop
  endfacet
  facet normal 0.707107 0 -0.707107
    outer loop
      vertex 33.0711 20 13.5711
      vertex 31.3033 16 11.8033
      vertex 30.5704 17.4266 11.0704
    endloop
  endfacet
  facet normal 0.707107 0 -0.707107
    outer loop
      vertex 30.5517 -4.15823 11.0517
      vertex 31.4653 -8.13473 11.9653
      vertex 33.0711 -20 13.5711
    endloop
  endfacet
  facet normal 0.707107 0 -0.707107
    outer loop
      vertex 31.4653 -8.13473 11.9653
      vertex 32.9435 -11.7557 13.4435
      vertex 33.0711 -20 13.5711
    endloop
  endfacet
  facet normal 0.707107 0 -0.707107
    outer loop
      vertex 29.3845 16.8817 9.88455
      vertex 29.3845 15.1183 9.88455
      vertex 25.5 20 6
    endloop
  endfacet
  facet normal 0.707107 0 0.707107
    outer loop
      vertex 30.9497 20 15.6924
      vertex 30.9497 11.956 15.6924
      vertex 33.0711 11.956 13.5711
    endloop
  endfacet
  facet normal 0.707107 0 0.707107
    outer loop
      vertex 33.0711 20 13.5711
      vertex 30.9497 20 15.6924
      vertex 33.0711 11.956 13.5711
    endloop
  endfacet
  facet normal 0.525483 -0.669131 0.525483
    outer loop
      vertex 32.9435 11.7557 13.4435
      vertex 33.0711 11.956 13.5711
      vertex 30.9497 11.956 15.6924
    endloop
  endfacet
  facet normal 0.525483 -0.669131 0.525483
    outer loop
      vertex 30.8222 11.7557 15.5649
      vertex 32.9435 11.7557 13.4435
      vertex 30.9497 11.956 15.6924
    endloop
  endfacet
  facet normal 0.612372 -0.5 0.612372
    outer loop
      vertex 31.4653 8.13473 11.9653
      vertex 32.9435 11.7557 13.4435
      vertex 30.8222 11.7557 15.5649
    endloop
  endfacet
  facet normal 0.612372 -0.5 0.612372
    outer loop
      vertex 29.344 8.13473 14.0866
      vertex 31.4653 8.13473 11.9653
      vertex 30.8222 11.7557 15.5649
    endloop
  endfacet
  facet normal 0.672499 -0.309017 0.672499
    outer loop
      vertex 30.5517 4.15823 11.0517
      vertex 31.4653 8.13473 11.9653
      vertex 29.344 8.13473 14.0866
    endloop
  endfacet
  facet normal 0.672499 -0.309017 0.672499
    outer loop
      vertex 28.4304 4.15823 13.173
      vertex 30.5517 4.15823 11.0517
      vertex 29.344 8.13473 14.0866
    endloop
  endfacet
  facet normal 0.703233 -0.104528 0.703233
    outer loop
      vertex 30.2426 0 10.7426
      vertex 30.5517 4.15823 11.0517
      vertex 28.4304 4.15823 13.173
    endloop
  endfacet
  facet normal 0.703233 -0.104528 0.703233
    outer loop
      vertex 28.1213 0 12.864
      vertex 30.2426 0 10.7426
      vertex 28.4304 4.15823 13.173
    endloop
  endfacet
  facet normal 0.703233 0.104528 0.703233
    outer loop
      vertex 28.4304 -4.15823 13.173
      vertex 30.5517 -4.15823 11.0517
      vertex 30.2426 0 10.7426
    endloop
  endfacet
  facet normal 0.703233 0.104528 0.703233
    outer loop
      vertex 28.1213 0 12.864
      vertex 28.4304 -4.15823 13.173
      vertex 30.2426 0 10.7426
    endloop
  endfacet
  facet normal 0.672499 0.309017 0.672499
    outer loop
      vertex 29.344 -8.13473 14.0866
      vertex 31.4653 -8.13473 11.9653
      vertex 30.5517 -4.15823 11.0517
    endloop
  endfacet
  facet normal 0.672499 0.309017 0.672499
    outer loop
      vertex 28.4304 -4.15823 13.173
      vertex 29.344 -8.13473 14.0866
      vertex 30.5517 -4.15823 11.0517
    endloop
  endfacet
  facet normal 0.612372 0.5 0.612372
    outer loop
      vertex 30.8222 -11.7557 15.5649
      vertex 32.9435 -11.7557 13.4435
      vertex 31.4653 -8.13473 11.9653
    endloop
  endfacet
  facet normal 0.612372 0.5 0.612372
    outer loop
      vertex 29.344 -8.13473 14.0866
      vertex 30.8222 -11.7557 15.5649
      vertex 31.4653 -8.13473 11.9653
    endloop
  endfacet
  facet normal 0.525483 0.669131 0.525483
    outer loop
      vertex 33.0711 -11.956 13.5711
      vertex 32.9435 -11.7557 13.4435
      vertex 30.9497 -11.956 15.6924
    endloop
  endfacet
  facet normal 0.525483 0.669131 0.525483
    outer loop
      vertex 30.9497 -11.956 15.6924
      vertex 32.9435 -11.7557 13.4435
      vertex 30.8222 -11.7557 15.5649
    endloop
  endfacet
  facet normal 0.707107 0 0.707107
    outer loop
      vertex 30.9497 -11.956 15.6924
      vertex 30.9497 -20 15.6924
      vertex 33.0711 -20 13.5711
    endloop
  endfacet
  facet normal 0.707107 0 0.707107
    outer loop
      vertex 33.0711 -11.956 13.5711
      vertex 30.9497 -11.956 15.6924
      vertex 33.0711 -20 13.5711
    endloop
  endfacet
  facet normal 0.707107 0 0.707107
    outer loop
      vertex 29.3845 -16.8817 9.88455
      vertex 29.3845 -15.1183 9.88455
      vertex 27.2632 -15.1183 12.0059
    endloop
  endfacet
  facet normal 0.707107 0 0.707107
    outer loop
      vertex 27.2632 -16.8817 12.0059
      vertex 29.3845 -16.8817 9.88455
      vertex 27.2632 -15.1183 12.0059
    endloop
  endfacet
  facet normal 0.218508 0.951056 0.218508
    outer loop
      vertex 30.5704 -17.4266 11.0704
      vertex 29.3845 -16.8817 9.88455
      vertex 28.4491 -17.4266 13.1917
    endloop
  endfacet
  facet normal 0.218508 0.951056 0.218508
    outer loop
      vertex 28.4491 -17.4266 13.1917
      vertex 29.3845 -16.8817 9.88455
      vertex 27.2632 -16.8817 12.0059
    endloop
  endfacet
  facet normal -0.572061 0.587785 -0.572061
    outer loop
      vertex 31.3033 -16 11.8033
      vertex 30.5704 -17.4266 11.0704
      vertex 29.182 -16 13.9246
    endloop
  endfacet
  facet normal -0.572061 0.587785 -0.572061
    outer loop
      vertex 29.182 -16 13.9246
      vertex 30.5704 -17.4266 11.0704
      vertex 28.4491 -17.4266 13.1917
    endloop
  endfacet
  facet normal -0.572061 -0.587785 -0.572061
    outer loop
      vertex 30.5704 -14.5734 11.0704
      vertex 31.3033 -16 11.8033
      vertex 29.182 -16 13.9246
    endloop
  endfacet
  facet normal -0.572061 -0.587785 -0.572061
    outer loop
      vertex 28.4491 -14.5734 13.1917
      vertex 30.5704 -14.5734 11.0704
      vertex 29.182 -16 13.9246
    endloop
  endfacet
  facet normal 0.218508 -0.951056 0.218508
    outer loop
      vertex 29.3845 -15.1183 9.88455
      vertex 30.5704 -14.5734 11.0704
      vertex 28.4491 -14.5734 13.1917
    endloop
  endfacet
  facet normal 0.218508 -0.951056 0.218508
    outer loop
      vertex 27.2632 -15.1183 12.0059
      vertex 29.3845 -15.1183 9.88455
      vertex 28.4491 -14.5734 13.1917
    endloop
  endfacet
  facet normal 0.707107 0 0.707107
    outer loop
      vertex 29.3845 15.1183 9.88455
      vertex 29.3845 16.8817 9.88455
      vertex 27.2632 16.8817 12.0059
    endloop
  endfacet
  facet normal 0.707107 0 0.707107
    outer loop
      vertex 27.2632 15.1183 12.0059
      vertex 29.3845 15.1183 9.88455
      vertex 27.2632 16.8817 12.0059
    endloop
  endfacet
  facet normal 0.218508 0.951056 0.218508
    outer loop
      vertex 30.5704 14.5734 11.0704
      vertex 29.3845 15.1183 9.88455
      vertex 28.4491 14.5734 13.1917
    endloop
  endfacet
  facet normal 0.218508 0.951056 0.218508
    outer loop
      vertex 28.4491 14.5734 13.1917
      vertex 29.3845 15.1183 9.88455
      vertex 27.2632 15.1183 12.0059
    endloop
  endfacet
  facet normal -0.572061 0.587785 -0.572061
    outer loop
      vertex 31.3033 16 11.8033
      vertex 30.5704 14.5734 11.0704
      vertex 29.182 16 13.9246
    endloop
  endfacet
  facet normal -0.572061 0.587785 -0.572061
    outer loop
      vertex 29.182 16 13.9246
      vertex 30.5704 14.5734 11.0704
      vertex 28.4491 14.5734 13.1917
    endloop
  endfacet
  facet normal -0.572061 -0.587785 -0.572061
    outer loop
      vertex 30.5704 17.4266 11.0704
      vertex 31.3033 16 11.8033
      vertex 29.182 16 13.9246
    endloop
  endfacet
  facet normal -0.572061 -0.587785 -0.572061
    outer loop
      vertex 28.4491 17.4266 13.1917
      vertex 30.5704 17.4266 11.0704
      vertex 29.182 16 13.9246
    endloop
  endfacet
  facet normal 0.218508 -0.951056 0.218508
    outer loop
      vertex 29.3845 16.8817 9.88455
      vertex 30.5704 17.4266 11.0704
      vertex 28.4491 17.4266 13.1917
    endloop
  endfacet
  facet normal 0.218508 -0.951056 0.218508
    outer loop
      vertex 27.2632 16.8817 12.0059
      vertex 29.3845 16.8817 9.88455
      vertex 28.4491 17.4266 13.1917
    endloop
  endfacet
endsolid OpenSCAD_Model
