solid OpenSCAD_Model
  facet normal -1 0 0
    outer loop
      vertex -12 -35 0
      vertex -12 -35 10
      vertex -12 -6.25 0
    endloop
  endfacet
  facet normal -1 0 0
    outer loop
      vertex -12 -8.25 4.4
      vertex -12 -35 10
      vertex -12 -8.25 10
    endloop
  endfacet
  facet normal -1 0 0
    outer loop
      vertex -12 -6.25 0
      vertex -12 -35 10
      vertex -12 -8.25 4.4
    endloop
  endfacet
  facet normal -1 0 0
    outer loop
      vertex -12 -6.25 4.4
      vertex -12 -6.25 0
      vertex -12 -8.25 4.4
    endloop
  endfacet
  facet normal 0 -1 0
    outer loop
      vertex -12 -35 10
      vertex -12 -35 0
      vertex 17 -35 0
    endloop
  endfacet
  facet normal 0 -1 0
    outer loop
      vertex 17 -35 10
      vertex -12 -35 10
      vertex 17 -35 0
    endloop
  endfacet
  facet normal 0 0 -1
    outer loop
      vertex 1.76777 -23.2322 0
      vertex -12 -6.25 0
      vertex 17 -35 0
    endloop
  endfacet
  facet normal 0 0 -1
    outer loop
      vertex 17 -35 0
      vertex -12 -6.25 0
      vertex 0 -6.25 0
    endloop
  endfacet
  facet normal 0 0 -1
    outer loop
      vertex 17 -35 0
      vertex 0 -6.25 0
      vertex 1.93136 -5.9441 0
    endloop
  endfacet
  facet normal 0 0 -1
    outer loop
      vertex 1.93136 -5.9441 0
      vertex 3.67366 -5.05636 0
      vertex 17 -35 0
    endloop
  endfacet
  facet normal 0 0 -1
    outer loop
      vertex 3.67366 -5.05636 0
      vertex 5.05636 -3.67366 0
      vertex 17 -35 0
    endloop
  endfacet
  facet normal 0 0 -1
    outer loop
      vertex 5.05636 -3.67366 0
      vertex 5.9441 -1.93136 0
      vertex 17 -35 0
    endloop
  endfacet
  facet normal 0 0 -1
    outer loop
      vertex 5.9441 -1.93136 0
      vertex 6.25 0 0
      vertex 17 -35 0
    endloop
  endfacet
  facet normal 0 0 -1
    outer loop
      vertex 6.25 0 0
      vertex 5.9441 1.93136 0
      vertex 17 -35 0
    endloop
  endfacet
  facet normal 0 0 -1
    outer loop
      vertex 5.9441 1.93136 0
      vertex 17 35 0
      vertex 17 -35 0
    endloop
  endfacet
  facet normal 0 0 -1
    outer loop
      vertex 3.67366 5.05636 0
      vertex -12 35 0
      vertex 5.05636 3.67366 0
    endloop
  endfacet
  facet normal 0 0 -1
    outer loop
      vertex 1.93136 5.9441 0
      vertex -12 35 0
      vertex 3.67366 5.05636 0
    endloop
  endfacet
  facet normal 0 0 -1
    outer loop
      vertex 0 6.25 0
      vertex -12 6.25 0
      vertex -12 35 0
    endloop
  endfacet
  facet normal 0 0 -1
    outer loop
      vertex 0 6.25 0
      vertex -12 35 0
      vertex 1.93136 5.9441 0
    endloop
  endfacet
  facet normal 0 0 -1
    outer loop
      vertex 0 27.5 0
      vertex -12 35 0
      vertex 17 35 0
    endloop
  endfacet
  facet normal 0 0 -1
    outer loop
      vertex 5.05636 3.67366 0
      vertex 17 35 0
      vertex 5.9441 1.93136 0
    endloop
  endfacet
  facet normal 0 0 -1
    outer loop
      vertex -12 -35 0
      vertex -12 -6.25 0
      vertex -2.5 -25 0
    endloop
  endfacet
  facet normal 0 0 -1
    outer loop
      vertex -12 -35 0
      vertex -2.5 -25 0
      vertex -1.76777 -26.7678 0
    endloop
  endfacet
  facet normal 0 0 -1
    outer loop
      vertex -12 -35 0
      vertex -1.76777 -26.7678 0
      vertex 17 -35 0
    endloop
  endfacet
  facet normal 0 0 -1
    outer loop
      vertex -1.76777 -26.7678 0
      vertex 0 -27.5 0
      vertex 17 -35 0
    endloop
  endfacet
  facet normal 0 0 -1
    outer loop
      vertex 2.5 25 0
      vertex 17 35 0
      vertex 1.76777 23.2322 0
    endloop
  endfacet
  facet normal 0 0 -1
    outer loop
      vertex 0 -22.5 0
      vertex -12 -6.25 0
      vertex 1.76777 -23.2322 0
    endloop
  endfacet
  facet normal 0 0 -1
    outer loop
      vertex -1.76777 -23.2322 0
      vertex -12 -6.25 0
      vertex 0 -22.5 0
    endloop
  endfacet
  facet normal 0 0 -1
    outer loop
      vertex 1.76777 -26.7678 0
      vertex 2.5 -25 0
      vertex 17 -35 0
    endloop
  endfacet
  facet normal 0 0 -1
    outer loop
      vertex 2.5 -25 0
      vertex 1.76777 -23.2322 0
      vertex 17 -35 0
    endloop
  endfacet
  facet normal 0 0 -1
    outer loop
      vertex -2.5 -25 0
      vertex -12 -6.25 0
      vertex -1.76777 -23.2322 0
    endloop
  endfacet
  facet normal 0 0 -1
    outer loop
      vertex 5.05636 3.67366 0
      vertex -12 35 0
      vertex -2.5 25 0
    endloop
  endfacet
  facet normal 0 0 -1
    outer loop
      vertex 5.05636 3.67366 0
      vertex -2.5 25 0
      vertex -1.76777 23.2322 0
    endloop
  endfacet
  facet normal 0 0 -1
    outer loop
      vertex 5.05636 3.67366 0
      vertex -1.76777 23.2322 0
      vertex 0 22.5 0
    endloop
  endfacet
  facet normal 0 0 -1
    outer loop
      vertex 5.05636 3.67366 0
      vertex 0 22.5 0
      vertex 1.76777 23.2322 0
    endloop
  endfacet
  facet normal 0 0 -1
    outer loop
      vertex 5.05636 3.67366 0
      vertex 1.76777 23.2322 0
      vertex 17 35 0
    endloop
  endfacet
  facet normal 0 0 -1
    outer loop
      vertex 1.76777 26.7678 0
      vertex 17 35 0
      vertex 2.5 25 0
    endloop
  endfacet
  facet normal 0 0 -1
    outer loop
      vertex 0 27.5 0
      vertex 17 35 0
      vertex 1.76777 26.7678 0
    endloop
  endfacet
  facet normal 0 0 -1
    outer loop
      vertex -1.76777 26.7678 0
      vertex -12 35 0
      vertex 0 27.5 0
    endloop
  endfacet
  facet normal 0 0 -1
    outer loop
      vertex -2.5 25 0
      vertex -12 35 0
      vertex -1.76777 26.7678 0
    endloop
  endfacet
  facet normal 0 0 -1
    outer loop
      vertex 1.76777 -26.7678 0
      vertex 17 -35 0
      vertex 0 -27.5 0
    endloop
  endfacet
  facet normal 0 1 0
    outer loop
      vertex 0 -6.25 4.4
      vertex 0 -6.25 0
      vertex -12 -6.25 4.4
    endloop
  endfacet
  facet normal 0 1 0
    outer loop
      vertex -12 -6.25 4.4
      vertex 0 -6.25 0
      vertex -12 -6.25 0
    endloop
  endfacet
  facet normal 0 0 1
    outer loop
      vertex 2.92549 -7.71388 4.4
      vertex 0 -8.18985 4.4
      vertex 0.994428 -8.18985 4.4
    endloop
  endfacet
  facet normal 0 0 1
    outer loop
      vertex 4.68653 -6.78962 4.4
      vertex 0 -8.18985 4.4
      vertex 2.92549 -7.71388 4.4
    endloop
  endfacet
  facet normal 0 0 1
    outer loop
      vertex 0 6.25 4.4
      vertex 1.93136 5.9441 4.4
      vertex 0.994428 8.18985 4.4
    endloop
  endfacet
  facet normal 0 0 1
    outer loop
      vertex 6.17521 -5.47076 4.4
      vertex 0 -8.18985 4.4
      vertex 4.68653 -6.78962 4.4
    endloop
  endfacet
  facet normal 0 0 1
    outer loop
      vertex 7.30501 -3.83397 4.4
      vertex 0 -8.18985 4.4
      vertex 6.17521 -5.47076 4.4
    endloop
  endfacet
  facet normal 0 0 1
    outer loop
      vertex 8.01027 -1.97435 4.4
      vertex 0 -8.18985 4.4
      vertex 7.30501 -3.83397 4.4
    endloop
  endfacet
  facet normal 0 0 1
    outer loop
      vertex 3.67366 -5.05636 4.4
      vertex 0 -8.18985 4.4
      vertex 8.01027 -1.97435 4.4
    endloop
  endfacet
  facet normal 0 0 1
    outer loop
      vertex 3.67366 -5.05636 4.4
      vertex 1.93136 -5.9441 4.4
      vertex 0 -8.18985 4.4
    endloop
  endfacet
  facet normal 0 0 1
    outer loop
      vertex 5.9441 1.93136 4.4
      vertex 6.25 0 4.4
      vertex 7.30501 3.83397 4.4
    endloop
  endfacet
  facet normal 0 0 1
    outer loop
      vertex 5.05636 3.67366 4.4
      vertex 5.9441 1.93136 4.4
      vertex 6.17521 5.47076 4.4
    endloop
  endfacet
  facet normal 0 0 1
    outer loop
      vertex 3.67366 5.05636 4.4
      vertex 5.05636 3.67366 4.4
      vertex 4.68653 6.78962 4.4
    endloop
  endfacet
  facet normal 0 0 1
    outer loop
      vertex 0 8.18985 4.4
      vertex 0 6.25 4.4
      vertex 0.994428 8.18985 4.4
    endloop
  endfacet
  facet normal 0 0 1
    outer loop
      vertex 6.25 0 4.4
      vertex 5.9441 -1.93136 4.4
      vertex 8.01027 1.97435 4.4
    endloop
  endfacet
  facet normal 0 0 1
    outer loop
      vertex -12 8.25 4.4
      vertex 0 8.18985 4.4
      vertex 0 8.25 4.4
    endloop
  endfacet
  facet normal 0 0 1
    outer loop
      vertex -12 8.25 4.4
      vertex 0 6.25 4.4
      vertex 0 8.18985 4.4
    endloop
  endfacet
  facet normal 0 0 1
    outer loop
      vertex 1.93136 5.9441 4.4
      vertex 3.67366 5.05636 4.4
      vertex 2.92549 7.71388 4.4
    endloop
  endfacet
  facet normal 0 0 1
    outer loop
      vertex 0.994428 8.18985 4.4
      vertex 1.93136 5.9441 4.4
      vertex 2.92549 7.71388 4.4
    endloop
  endfacet
  facet normal 0 0 1
    outer loop
      vertex 0 -8.18985 4.4
      vertex -12 -6.25 4.4
      vertex 0 -8.25 4.4
    endloop
  endfacet
  facet normal 0 0 1
    outer loop
      vertex 2.92549 7.71388 4.4
      vertex 3.67366 5.05636 4.4
      vertex 4.68653 6.78962 4.4
    endloop
  endfacet
  facet normal 0 0 1
    outer loop
      vertex 0 -6.25 4.4
      vertex -12 -6.25 4.4
      vertex 0 -8.18985 4.4
    endloop
  endfacet
  facet normal 0 0 1
    outer loop
      vertex 4.68653 6.78962 4.4
      vertex 5.05636 3.67366 4.4
      vertex 6.17521 5.47076 4.4
    endloop
  endfacet
  facet normal 0 0 1
    outer loop
      vertex 6.17521 5.47076 4.4
      vertex 5.9441 1.93136 4.4
      vertex 7.30501 3.83397 4.4
    endloop
  endfacet
  facet normal 0 0 1
    outer loop
      vertex 7.30501 3.83397 4.4
      vertex 6.25 0 4.4
      vertex 8.01027 1.97435 4.4
    endloop
  endfacet
  facet normal 0 0 1
    outer loop
      vertex 8.01027 1.97435 4.4
      vertex 5.9441 -1.93136 4.4
      vertex 8.25 0 4.4
    endloop
  endfacet
  facet normal 0 0 1
    outer loop
      vertex 8.25 0 4.4
      vertex 5.05636 -3.67366 4.4
      vertex 8.01027 -1.97435 4.4
    endloop
  endfacet
  facet normal 0 0 1
    outer loop
      vertex 5.05636 -3.67366 4.4
      vertex 3.67366 -5.05636 4.4
      vertex 8.01027 -1.97435 4.4
    endloop
  endfacet
  facet normal 0 0 1
    outer loop
      vertex 5.9441 -1.93136 4.4
      vertex 5.05636 -3.67366 4.4
      vertex 8.25 0 4.4
    endloop
  endfacet
  facet normal 0 0 1
    outer loop
      vertex -12 -8.25 4.4
      vertex 0 -8.25 4.4
      vertex -12 -6.25 4.4
    endloop
  endfacet
  facet normal 0 0 1
    outer loop
      vertex -12 6.25 4.4
      vertex 0 6.25 4.4
      vertex -12 8.25 4.4
    endloop
  endfacet
  facet normal 0 0 1
    outer loop
      vertex 1.93136 -5.9441 4.4
      vertex 0 -6.25 4.4
      vertex 0 -8.18985 4.4
    endloop
  endfacet
  facet normal 0 1 0
    outer loop
      vertex 0 -8.25 10
      vertex 0 -8.25 4.4
      vertex -12 -8.25 10
    endloop
  endfacet
  facet normal 0 1 0
    outer loop
      vertex -12 -8.25 10
      vertex 0 -8.25 4.4
      vertex -12 -8.25 4.4
    endloop
  endfacet
  facet normal 0 0 1
    outer loop
      vertex -1.76777 -26.7678 10
      vertex -12 -35 10
      vertex 17 -35 10
    endloop
  endfacet
  facet normal 0 0 1
    outer loop
      vertex 15.7574 -20 10
      vertex -12 -8.25 10
      vertex 17 -35 10
    endloop
  endfacet
  facet normal 0 0 1
    outer loop
      vertex 17 -20 10
      vertex 15.7574 -20 10
      vertex 17 -35 10
    endloop
  endfacet
  facet normal 0 0 1
    outer loop
      vertex 8.25 0 10
      vertex 8.01027 -1.97435 10
      vertex 15.7574 -20 10
    endloop
  endfacet
  facet normal 0 0 1
    outer loop
      vertex 17 35 10
      vertex 15.7574 20 10
      vertex 17 20 10
    endloop
  endfacet
  facet normal 0 0 1
    outer loop
      vertex 2.92549 7.71388 10
      vertex 4.68653 6.78962 10
      vertex 15.7574 20 10
    endloop
  endfacet
  facet normal 0 0 1
    outer loop
      vertex 1.76777 23.2322 10
      vertex -12 8.25 10
      vertex 17 35 10
    endloop
  endfacet
  facet normal 0 0 1
    outer loop
      vertex 17 35 10
      vertex 0 8.25 10
      vertex 15.7574 20 10
    endloop
  endfacet
  facet normal 0 0 1
    outer loop
      vertex 0 8.25 10
      vertex 0 8.18985 10
      vertex 15.7574 20 10
    endloop
  endfacet
  facet normal 0 0 1
    outer loop
      vertex 0 8.18985 10
      vertex 0.994428 8.18985 10
      vertex 15.7574 20 10
    endloop
  endfacet
  facet normal 0 0 1
    outer loop
      vertex 0.994428 8.18985 10
      vertex 2.92549 7.71388 10
      vertex 15.7574 20 10
    endloop
  endfacet
  facet normal 0 0 1
    outer loop
      vertex 15.7574 20 10
      vertex 4.68653 6.78962 10
      vertex 6.17521 5.47076 10
    endloop
  endfacet
  facet normal 0 0 1
    outer loop
      vertex 15.7574 20 10
      vertex 6.17521 5.47076 10
      vertex 7.30501 3.83397 10
    endloop
  endfacet
  facet normal 0 0 1
    outer loop
      vertex -12 8.25 10
      vertex 0 8.25 10
      vertex 17 35 10
    endloop
  endfacet
  facet normal 0 0 1
    outer loop
      vertex 1.76777 -23.2322 10
      vertex 2.5 -25 10
      vertex 17 -35 10
    endloop
  endfacet
  facet normal 0 0 1
    outer loop
      vertex 0 -27.5 10
      vertex -1.76777 -26.7678 10
      vertex 17 -35 10
    endloop
  endfacet
  facet normal 0 0 1
    outer loop
      vertex -12 -8.25 10
      vertex -12 -35 10
      vertex -1.76777 -26.7678 10
    endloop
  endfacet
  facet normal 0 0 1
    outer loop
      vertex 0 27.5 10
      vertex 1.76777 26.7678 10
      vertex 17 35 10
    endloop
  endfacet
  facet normal 0 0 1
    outer loop
      vertex -12 -8.25 10
      vertex -1.76777 -26.7678 10
      vertex -2.5 -25 10
    endloop
  endfacet
  facet normal 0 0 1
    outer loop
      vertex 1.76777 -26.7678 10
      vertex 0 -27.5 10
      vertex 17 -35 10
    endloop
  endfacet
  facet normal 0 0 1
    outer loop
      vertex -12 -8.25 10
      vertex -2.5 -25 10
      vertex -1.76777 -23.2322 10
    endloop
  endfacet
  facet normal 0 0 1
    outer loop
      vertex 2.5 -25 10
      vertex 1.76777 -26.7678 10
      vertex 17 -35 10
    endloop
  endfacet
  facet normal 0 0 1
    outer loop
      vertex -12 -8.25 10
      vertex -1.76777 -23.2322 10
      vertex 0 -22.5 10
    endloop
  endfacet
  facet normal 0 0 1
    outer loop
      vertex -12 -8.25 10
      vertex 1.76777 -23.2322 10
      vertex 17 -35 10
    endloop
  endfacet
  facet normal 0 0 1
    outer loop
      vertex -12 -8.25 10
      vertex 0 -22.5 10
      vertex 1.76777 -23.2322 10
    endloop
  endfacet
  facet normal 0 0 1
    outer loop
      vertex 1.76777 23.2322 10
      vertex 0 22.5 10
      vertex -12 8.25 10
    endloop
  endfacet
  facet normal 0 0 1
    outer loop
      vertex -12 35 10
      vertex -12 8.25 10
      vertex -1.76777 23.2322 10
    endloop
  endfacet
  facet normal 0 0 1
    outer loop
      vertex 1.76777 26.7678 10
      vertex 2.5 25 10
      vertex 17 35 10
    endloop
  endfacet
  facet normal 0 0 1
    outer loop
      vertex -12 35 10
      vertex -1.76777 23.2322 10
      vertex -2.5 25 10
    endloop
  endfacet
  facet normal 0 0 1
    outer loop
      vertex -12 35 10
      vertex -1.76777 26.7678 10
      vertex 17 35 10
    endloop
  endfacet
  facet normal 0 0 1
    outer loop
      vertex -12 35 10
      vertex -2.5 25 10
      vertex -1.76777 26.7678 10
    endloop
  endfacet
  facet normal 0 0 1
    outer loop
      vertex -1.76777 26.7678 10
      vertex 0 27.5 10
      vertex 17 35 10
    endloop
  endfacet
  facet normal 0 0 1
    outer loop
      vertex 2.5 25 10
      vertex 1.76777 23.2322 10
      vertex 17 35 10
    endloop
  endfacet
  facet normal 0 0 1
    outer loop
      vertex -1.76777 23.2322 10
      vertex -12 8.25 10
      vertex 0 22.5 10
    endloop
  endfacet
  facet normal 0 0 1
    outer loop
      vertex 15.7574 -20 10
      vertex 0 -8.25 10
      vertex -12 -8.25 10
    endloop
  endfacet
  facet normal 0 0 1
    outer loop
      vertex 15.7574 -20 10
      vertex 0.994428 -8.18985 10
      vertex 0 -8.25 10
    endloop
  endfacet
  facet normal 0 0 1
    outer loop
      vertex 15.7574 -20 10
      vertex 2.92549 -7.71388 10
      vertex 0.994428 -8.18985 10
    endloop
  endfacet
  facet normal 0 0 1
    outer loop
      vertex 15.7574 -20 10
      vertex 4.68653 -6.78962 10
      vertex 2.92549 -7.71388 10
    endloop
  endfacet
  facet normal 0 0 1
    outer loop
      vertex 15.7574 -20 10
      vertex 6.17521 -5.47076 10
      vertex 4.68653 -6.78962 10
    endloop
  endfacet
  facet normal 0 0 1
    outer loop
      vertex 15.7574 -20 10
      vertex 7.30501 -3.83397 10
      vertex 6.17521 -5.47076 10
    endloop
  endfacet
  facet normal 0 0 1
    outer loop
      vertex 15.7574 -20 10
      vertex 8.01027 -1.97435 10
      vertex 7.30501 -3.83397 10
    endloop
  endfacet
  facet normal 0 0 1
    outer loop
      vertex 0 -8.18985 10
      vertex 0 -8.25 10
      vertex 0.994428 -8.18985 10
    endloop
  endfacet
  facet normal 0 0 1
    outer loop
      vertex 15.7574 -20 10
      vertex 8.01027 1.97435 10
      vertex 8.25 0 10
    endloop
  endfacet
  facet normal 0 0 1
    outer loop
      vertex 8.01027 1.97435 10
      vertex 15.7574 20 10
      vertex 7.30501 3.83397 10
    endloop
  endfacet
  facet normal 0 0 1
    outer loop
      vertex 15.7574 -20 10
      vertex 15.7574 20 10
      vertex 8.01027 1.97435 10
    endloop
  endfacet
  facet normal 1 0 0
    outer loop
      vertex 17 -20 7
      vertex 17 -35 0
      vertex 17 35 0
    endloop
  endfacet
  facet normal 1 0 0
    outer loop
      vertex 17 -20 7
      vertex 17 -20 10
      vertex 17 -35 10
    endloop
  endfacet
  facet normal 1 0 0
    outer loop
      vertex 17 35 10
      vertex 17 20 10
      vertex 17 35 0
    endloop
  endfacet
  facet normal 1 0 0
    outer loop
      vertex 17 20 10
      vertex 17 20 7
      vertex 17 35 0
    endloop
  endfacet
  facet normal 1 0 0
    outer loop
      vertex 17 -35 10
      vertex 17 -35 0
      vertex 17 -20 7
    endloop
  endfacet
  facet normal 1 0 0
    outer loop
      vertex 17 20 7
      vertex 17 -20 7
      vertex 17 35 0
    endloop
  endfacet
  facet normal 0 1 0
    outer loop
      vertex -12 35 0
      vertex -12 35 10
      vertex 17 35 0
    endloop
  endfacet
  facet normal 0 1 0
    outer loop
      vertex 17 35 0
      vertex -12 35 10
      vertex 17 35 10
    endloop
  endfacet
  facet normal -1 0 0
    outer loop
      vertex -12 6.25 0
      vertex -12 6.25 4.4
      vertex -12 35 0
    endloop
  endfacet
  facet normal -1 0 0
    outer loop
      vertex -12 35 0
      vertex -12 6.25 4.4
      vertex -12 8.25 4.4
    endloop
  endfacet
  facet normal -1 0 0
    outer loop
      vertex -12 35 0
      vertex -12 8.25 4.4
      vertex -12 8.25 10
    endloop
  endfacet
  facet normal -1 0 0
    outer loop
      vertex -12 35 0
      vertex -12 8.25 10
      vertex -12 35 10
    endloop
  endfacet
  facet normal 0 -1 0
    outer loop
      vertex 0 6.25 0
      vertex 0 6.25 4.4
      vertex -12 6.25 4.4
    endloop
  endfacet
  facet normal 0 -1 0
    outer loop
      vertex -12 6.25 0
      vertex 0 6.25 0
      vertex -12 6.25 4.4
    endloop
  endfacet
  facet normal -0.156435 -0.987688 0
    outer loop
      vertex 1.93136 5.9441 0
      vertex 1.93136 5.9441 4.4
      vertex 0 6.25 4.4
    endloop
  endfacet
  facet normal -0.156435 -0.987688 0
    outer loop
      vertex 0 6.25 0
      vertex 1.93136 5.9441 0
      vertex 0 6.25 4.4
    endloop
  endfacet
  facet normal -0.45399 -0.891007 0
    outer loop
      vertex 3.67366 5.05636 0
      vertex 3.67366 5.05636 4.4
      vertex 1.93136 5.9441 4.4
    endloop
  endfacet
  facet normal -0.45399 -0.891007 0
    outer loop
      vertex 1.93136 5.9441 0
      vertex 3.67366 5.05636 0
      vertex 1.93136 5.9441 4.4
    endloop
  endfacet
  facet normal -0.707107 -0.707107 0
    outer loop
      vertex 5.05636 3.67366 0
      vertex 5.05636 3.67366 4.4
      vertex 3.67366 5.05636 4.4
    endloop
  endfacet
  facet normal -0.707107 -0.707107 0
    outer loop
      vertex 3.67366 5.05636 0
      vertex 5.05636 3.67366 0
      vertex 3.67366 5.05636 4.4
    endloop
  endfacet
  facet normal -0.891007 -0.45399 0
    outer loop
      vertex 5.9441 1.93136 4.4
      vertex 5.05636 3.67366 4.4
      vertex 5.9441 1.93136 0
    endloop
  endfacet
  facet normal -0.891007 -0.45399 0
    outer loop
      vertex 5.9441 1.93136 0
      vertex 5.05636 3.67366 4.4
      vertex 5.05636 3.67366 0
    endloop
  endfacet
  facet normal -0.987688 -0.156435 0
    outer loop
      vertex 6.25 0 4.4
      vertex 5.9441 1.93136 4.4
      vertex 6.25 0 0
    endloop
  endfacet
  facet normal -0.987688 -0.156435 0
    outer loop
      vertex 6.25 0 0
      vertex 5.9441 1.93136 4.4
      vertex 5.9441 1.93136 0
    endloop
  endfacet
  facet normal -0.987688 0.156435 0
    outer loop
      vertex 6.25 0 4.4
      vertex 6.25 0 0
      vertex 5.9441 -1.93136 4.4
    endloop
  endfacet
  facet normal -0.987688 0.156435 0
    outer loop
      vertex 5.9441 -1.93136 4.4
      vertex 6.25 0 0
      vertex 5.9441 -1.93136 0
    endloop
  endfacet
  facet normal -0.891007 0.45399 0
    outer loop
      vertex 5.9441 -1.93136 4.4
      vertex 5.9441 -1.93136 0
      vertex 5.05636 -3.67366 4.4
    endloop
  endfacet
  facet normal -0.891007 0.45399 0
    outer loop
      vertex 5.05636 -3.67366 4.4
      vertex 5.9441 -1.93136 0
      vertex 5.05636 -3.67366 0
    endloop
  endfacet
  facet normal -0.707107 0.707107 0
    outer loop
      vertex 5.05636 -3.67366 4.4
      vertex 5.05636 -3.67366 0
      vertex 3.67366 -5.05636 4.4
    endloop
  endfacet
  facet normal -0.707107 0.707107 0
    outer loop
      vertex 3.67366 -5.05636 4.4
      vertex 5.05636 -3.67366 0
      vertex 3.67366 -5.05636 0
    endloop
  endfacet
  facet normal -0.45399 0.891007 0
    outer loop
      vertex 3.67366 -5.05636 4.4
      vertex 3.67366 -5.05636 0
      vertex 1.93136 -5.9441 4.4
    endloop
  endfacet
  facet normal -0.45399 0.891007 0
    outer loop
      vertex 1.93136 -5.9441 4.4
      vertex 3.67366 -5.05636 0
      vertex 1.93136 -5.9441 0
    endloop
  endfacet
  facet normal -0.156435 0.987688 0
    outer loop
      vertex 1.93136 -5.9441 4.4
      vertex 1.93136 -5.9441 0
      vertex 0 -6.25 4.4
    endloop
  endfacet
  facet normal -0.156435 0.987688 0
    outer loop
      vertex 0 -6.25 4.4
      vertex 1.93136 -5.9441 0
      vertex 0 -6.25 0
    endloop
  endfacet
  facet normal 0.92388 -0.382683 0
    outer loop
      vertex -1.76777 -23.2322 0
      vertex -1.76777 -23.2322 10
      vertex -2.5 -25 10
    endloop
  endfacet
  facet normal 0.92388 -0.382683 0
    outer loop
      vertex -2.5 -25 0
      vertex -1.76777 -23.2322 0
      vertex -2.5 -25 10
    endloop
  endfacet
  facet normal 0.92388 0.382683 0
    outer loop
      vertex -2.5 -25 10
      vertex -1.76777 -26.7678 10
      vertex -1.76777 -26.7678 0
    endloop
  endfacet
  facet normal 0.92388 0.382683 0
    outer loop
      vertex -2.5 -25 0
      vertex -2.5 -25 10
      vertex -1.76777 -26.7678 0
    endloop
  endfacet
  facet normal 0.382683 -0.92388 0
    outer loop
      vertex 0 -22.5 0
      vertex 0 -22.5 10
      vertex -1.76777 -23.2322 10
    endloop
  endfacet
  facet normal 0.382683 -0.92388 0
    outer loop
      vertex -1.76777 -23.2322 0
      vertex 0 -22.5 0
      vertex -1.76777 -23.2322 10
    endloop
  endfacet
  facet normal -0.382683 -0.92388 0
    outer loop
      vertex 1.76777 -23.2322 0
      vertex 1.76777 -23.2322 10
      vertex 0 -22.5 10
    endloop
  endfacet
  facet normal -0.382683 -0.92388 0
    outer loop
      vertex 0 -22.5 0
      vertex 1.76777 -23.2322 0
      vertex 0 -22.5 10
    endloop
  endfacet
  facet normal -0.92388 -0.382683 0
    outer loop
      vertex 2.5 -25 10
      vertex 1.76777 -23.2322 10
      vertex 2.5 -25 0
    endloop
  endfacet
  facet normal -0.92388 -0.382683 0
    outer loop
      vertex 2.5 -25 0
      vertex 1.76777 -23.2322 10
      vertex 1.76777 -23.2322 0
    endloop
  endfacet
  facet normal -0.92388 0.382683 0
    outer loop
      vertex 2.5 -25 10
      vertex 2.5 -25 0
      vertex 1.76777 -26.7678 10
    endloop
  endfacet
  facet normal -0.92388 0.382683 0
    outer loop
      vertex 1.76777 -26.7678 10
      vertex 2.5 -25 0
      vertex 1.76777 -26.7678 0
    endloop
  endfacet
  facet normal -0.382683 0.92388 0
    outer loop
      vertex 1.76777 -26.7678 10
      vertex 1.76777 -26.7678 0
      vertex 0 -27.5 10
    endloop
  endfacet
  facet normal -0.382683 0.92388 0
    outer loop
      vertex 0 -27.5 10
      vertex 1.76777 -26.7678 0
      vertex 0 -27.5 0
    endloop
  endfacet
  facet normal 0.382683 0.92388 0
    outer loop
      vertex 0 -27.5 10
      vertex 0 -27.5 0
      vertex -1.76777 -26.7678 10
    endloop
  endfacet
  facet normal 0.382683 0.92388 0
    outer loop
      vertex -1.76777 -26.7678 10
      vertex 0 -27.5 0
      vertex -1.76777 -26.7678 0
    endloop
  endfacet
  facet normal 0.92388 -0.382683 0
    outer loop
      vertex -1.76777 26.7678 0
      vertex -1.76777 26.7678 10
      vertex -2.5 25 10
    endloop
  endfacet
  facet normal 0.92388 -0.382683 0
    outer loop
      vertex -2.5 25 0
      vertex -1.76777 26.7678 0
      vertex -2.5 25 10
    endloop
  endfacet
  facet normal 0.92388 0.382683 0
    outer loop
      vertex -2.5 25 10
      vertex -1.76777 23.2322 10
      vertex -1.76777 23.2322 0
    endloop
  endfacet
  facet normal 0.92388 0.382683 0
    outer loop
      vertex -2.5 25 0
      vertex -2.5 25 10
      vertex -1.76777 23.2322 0
    endloop
  endfacet
  facet normal 0.382683 -0.92388 0
    outer loop
      vertex 0 27.5 0
      vertex 0 27.5 10
      vertex -1.76777 26.7678 10
    endloop
  endfacet
  facet normal 0.382683 -0.92388 0
    outer loop
      vertex -1.76777 26.7678 0
      vertex 0 27.5 0
      vertex -1.76777 26.7678 10
    endloop
  endfacet
  facet normal -0.382683 -0.92388 0
    outer loop
      vertex 1.76777 26.7678 0
      vertex 1.76777 26.7678 10
      vertex 0 27.5 10
    endloop
  endfacet
  facet normal -0.382683 -0.92388 0
    outer loop
      vertex 0 27.5 0
      vertex 1.76777 26.7678 0
      vertex 0 27.5 10
    endloop
  endfacet
  facet normal -0.92388 -0.382683 0
    outer loop
      vertex 2.5 25 10
      vertex 1.76777 26.7678 10
      vertex 2.5 25 0
    endloop
  endfacet
  facet normal -0.92388 -0.382683 0
    outer loop
      vertex 2.5 25 0
      vertex 1.76777 26.7678 10
      vertex 1.76777 26.7678 0
    endloop
  endfacet
  facet normal -0.92388 0.382683 0
    outer loop
      vertex 2.5 25 10
      vertex 2.5 25 0
      vertex 1.76777 23.2322 10
    endloop
  endfacet
  facet normal -0.92388 0.382683 0
    outer loop
      vertex 1.76777 23.2322 10
      vertex 2.5 25 0
      vertex 1.76777 23.2322 0
    endloop
  endfacet
  facet normal -0.382683 0.92388 0
    outer loop
      vertex 1.76777 23.2322 10
      vertex 1.76777 23.2322 0
      vertex 0 22.5 10
    endloop
  endfacet
  facet normal -0.382683 0.92388 0
    outer loop
      vertex 0 22.5 10
      vertex 1.76777 23.2322 0
      vertex 0 22.5 0
    endloop
  endfacet
  facet normal 0.382683 0.92388 0
    outer loop
      vertex 0 22.5 10
      vertex 0 22.5 0
      vertex -1.76777 23.2322 10
    endloop
  endfacet
  facet normal 0.382683 0.92388 0
    outer loop
      vertex -1.76777 23.2322 10
      vertex 0 22.5 0
      vertex -1.76777 23.2322 0
    endloop
  endfacet
  facet normal -1 0 0
    outer loop
      vertex 0 -8.18985 10
      vertex 0 -8.18985 4.4
      vertex 0 -8.25 10
    endloop
  endfacet
  facet normal -1 0 0
    outer loop
      vertex 0 -8.25 10
      vertex 0 -8.18985 4.4
      vertex 0 -8.25 4.4
    endloop
  endfacet
  facet normal 0 -1 0
    outer loop
      vertex 0 8.25 4.4
      vertex 0 8.25 10
      vertex -12 8.25 10
    endloop
  endfacet
  facet normal 0 -1 0
    outer loop
      vertex -12 8.25 4.4
      vertex 0 8.25 4.4
      vertex -12 8.25 10
    endloop
  endfacet
  facet normal -1 0 0
    outer loop
      vertex 0 8.25 10
      vertex 0 8.25 4.4
      vertex 0 8.18985 10
    endloop
  endfacet
  facet normal -1 0 0
    outer loop
      vertex 0 8.18985 10
      vertex 0 8.25 4.4
      vertex 0 8.18985 4.4
    endloop
  endfacet
  facet normal 0 -1 0
    outer loop
      vertex 0.994428 8.18985 4.4
      vertex 0.994428 8.18985 10
      vertex 0 8.18985 10
    endloop
  endfacet
  facet normal 0 -1 0
    outer loop
      vertex 0 8.18985 4.4
      vertex 0.994428 8.18985 4.4
      vertex 0 8.18985 10
    endloop
  endfacet
  facet normal -0.239316 -0.970942 0
    outer loop
      vertex 2.92549 7.71388 4.4
      vertex 2.92549 7.71388 10
      vertex 0.994428 8.18985 10
    endloop
  endfacet
  facet normal -0.239316 -0.970942 0
    outer loop
      vertex 0.994428 8.18985 4.4
      vertex 2.92549 7.71388 4.4
      vertex 0.994428 8.18985 10
    endloop
  endfacet
  facet normal -0.464723 -0.885456 0
    outer loop
      vertex 4.68653 6.78962 4.4
      vertex 4.68653 6.78962 10
      vertex 2.92549 7.71388 10
    endloop
  endfacet
  facet normal -0.464723 -0.885456 0
    outer loop
      vertex 2.92549 7.71388 4.4
      vertex 4.68653 6.78962 4.4
      vertex 2.92549 7.71388 10
    endloop
  endfacet
  facet normal -0.663123 -0.748511 0
    outer loop
      vertex 6.17521 5.47076 4.4
      vertex 6.17521 5.47076 10
      vertex 4.68653 6.78962 10
    endloop
  endfacet
  facet normal -0.663123 -0.748511 0
    outer loop
      vertex 4.68653 6.78962 4.4
      vertex 6.17521 5.47076 4.4
      vertex 4.68653 6.78962 10
    endloop
  endfacet
  facet normal -0.822984 -0.568065 0
    outer loop
      vertex 7.30501 3.83397 10
      vertex 6.17521 5.47076 10
      vertex 7.30501 3.83397 4.4
    endloop
  endfacet
  facet normal -0.822984 -0.568065 0
    outer loop
      vertex 7.30501 3.83397 4.4
      vertex 6.17521 5.47076 10
      vertex 6.17521 5.47076 4.4
    endloop
  endfacet
  facet normal -0.935016 -0.354605 0
    outer loop
      vertex 8.01027 1.97435 10
      vertex 7.30501 3.83397 10
      vertex 8.01027 1.97435 4.4
    endloop
  endfacet
  facet normal -0.935016 -0.354605 0
    outer loop
      vertex 8.01027 1.97435 4.4
      vertex 7.30501 3.83397 10
      vertex 7.30501 3.83397 4.4
    endloop
  endfacet
  facet normal -0.992709 -0.120537 0
    outer loop
      vertex 8.25 0 10
      vertex 8.01027 1.97435 10
      vertex 8.25 0 4.4
    endloop
  endfacet
  facet normal -0.992709 -0.120537 0
    outer loop
      vertex 8.25 0 4.4
      vertex 8.01027 1.97435 10
      vertex 8.01027 1.97435 4.4
    endloop
  endfacet
  facet normal -0.992709 0.120537 0
    outer loop
      vertex 8.25 0 10
      vertex 8.25 0 4.4
      vertex 8.01027 -1.97435 10
    endloop
  endfacet
  facet normal -0.992709 0.120537 0
    outer loop
      vertex 8.01027 -1.97435 10
      vertex 8.25 0 4.4
      vertex 8.01027 -1.97435 4.4
    endloop
  endfacet
  facet normal -0.935016 0.354605 0
    outer loop
      vertex 8.01027 -1.97435 10
      vertex 8.01027 -1.97435 4.4
      vertex 7.30501 -3.83397 10
    endloop
  endfacet
  facet normal -0.935016 0.354605 0
    outer loop
      vertex 7.30501 -3.83397 10
      vertex 8.01027 -1.97435 4.4
      vertex 7.30501 -3.83397 4.4
    endloop
  endfacet
  facet normal -0.822984 0.568065 0
    outer loop
      vertex 7.30501 -3.83397 10
      vertex 7.30501 -3.83397 4.4
      vertex 6.17521 -5.47076 10
    endloop
  endfacet
  facet normal -0.822984 0.568065 0
    outer loop
      vertex 6.17521 -5.47076 10
      vertex 7.30501 -3.83397 4.4
      vertex 6.17521 -5.47076 4.4
    endloop
  endfacet
  facet normal -0.663123 0.748511 0
    outer loop
      vertex 6.17521 -5.47076 10
      vertex 6.17521 -5.47076 4.4
      vertex 4.68653 -6.78962 10
    endloop
  endfacet
  facet normal -0.663123 0.748511 0
    outer loop
      vertex 4.68653 -6.78962 10
      vertex 6.17521 -5.47076 4.4
      vertex 4.68653 -6.78962 4.4
    endloop
  endfacet
  facet normal -0.464723 0.885456 0
    outer loop
      vertex 4.68653 -6.78962 10
      vertex 4.68653 -6.78962 4.4
      vertex 2.92549 -7.71388 10
    endloop
  endfacet
  facet normal -0.464723 0.885456 0
    outer loop
      vertex 2.92549 -7.71388 10
      vertex 4.68653 -6.78962 4.4
      vertex 2.92549 -7.71388 4.4
    endloop
  endfacet
  facet normal -0.239316 0.970942 0
    outer loop
      vertex 2.92549 -7.71388 10
      vertex 2.92549 -7.71388 4.4
      vertex 0.994428 -8.18985 10
    endloop
  endfacet
  facet normal -0.239316 0.970942 0
    outer loop
      vertex 0.994428 -8.18985 10
      vertex 2.92549 -7.71388 4.4
      vertex 0.994428 -8.18985 4.4
    endloop
  endfacet
  facet normal 0 1 0
    outer loop
      vertex 0.994428 -8.18985 10
      vertex 0.994428 -8.18985 4.4
      vertex 0 -8.18985 10
    endloop
  endfacet
  facet normal 0 1 0
    outer loop
      vertex 0 -8.18985 10
      vertex 0.994428 -8.18985 4.4
      vertex 0 -8.18985 4.4
    endloop
  endfacet
  facet normal 0 1 0
    outer loop
      vertex 15.7574 20 10
      vertex 21.9497 20 16.1924
      vertex 17 20 10
    endloop
  endfacet
  facet normal 0 1 0
    outer loop
      vertex 17 20 10
      vertex 21.9497 20 16.1924
      vertex 24.0711 20 14.0711
    endloop
  endfacet
  facet normal 0 1 0
    outer loop
      vertex 17 20 10
      vertex 24.0711 20 14.0711
      vertex 17 20 7
    endloop
  endfacet
  facet normal -0.707107 0 0.707107
    outer loop
      vertex 19.1213 0 13.364
      vertex 15.7574 20 10
      vertex 19.4304 -4.15823 13.673
    endloop
  endfacet
  facet normal -0.707107 0 0.707107
    outer loop
      vertex 21.8222 -11.7557 16.0649
      vertex 21.9497 -20 16.1924
      vertex 21.9497 -11.956 16.1924
    endloop
  endfacet
  facet normal -0.707107 0 0.707107
    outer loop
      vertex 20.344 -8.13473 14.5866
      vertex 21.9497 -20 16.1924
      vertex 21.8222 -11.7557 16.0649
    endloop
  endfacet
  facet normal -0.707107 0 0.707107
    outer loop
      vertex 20.182 -16 14.4246
      vertex 21.9497 -20 16.1924
      vertex 19.4304 -4.15823 13.673
    endloop
  endfacet
  facet normal -0.707107 0 0.707107
    outer loop
      vertex 15.7574 -20 10
      vertex 19.4304 -4.15823 13.673
      vertex 15.7574 20 10
    endloop
  endfacet
  facet normal -0.707107 0 0.707107
    outer loop
      vertex 19.4304 4.15823 13.673
      vertex 15.7574 20 10
      vertex 19.1213 0 13.364
    endloop
  endfacet
  facet normal -0.707107 0 0.707107
    outer loop
      vertex 19.4491 -14.5734 13.6917
      vertex 19.4304 -4.15823 13.673
      vertex 18.2632 -15.1183 12.5059
    endloop
  endfacet
  facet normal -0.707107 0 0.707107
    outer loop
      vertex 15.7574 20 10
      vertex 19.4304 4.15823 13.673
      vertex 20.344 8.13473 14.5866
    endloop
  endfacet
  facet normal -0.707107 0 0.707107
    outer loop
      vertex 20.182 16 14.4246
      vertex 21.9497 11.956 16.1924
      vertex 21.9497 20 16.1924
    endloop
  endfacet
  facet normal -0.707107 0 0.707107
    outer loop
      vertex 15.7574 -20 10
      vertex 21.9497 -20 16.1924
      vertex 18.2632 -16.8817 12.5059
    endloop
  endfacet
  facet normal -0.707107 0 0.707107
    outer loop
      vertex 15.7574 -20 10
      vertex 18.2632 -16.8817 12.5059
      vertex 18.2632 -15.1183 12.5059
    endloop
  endfacet
  facet normal -0.707107 0 0.707107
    outer loop
      vertex 15.7574 -20 10
      vertex 18.2632 -15.1183 12.5059
      vertex 19.4304 -4.15823 13.673
    endloop
  endfacet
  facet normal -0.707107 0 0.707107
    outer loop
      vertex 18.2632 16.8817 12.5059
      vertex 15.7574 20 10
      vertex 18.2632 15.1183 12.5059
    endloop
  endfacet
  facet normal -0.707107 0 0.707107
    outer loop
      vertex 19.4491 -17.4266 13.6917
      vertex 21.9497 -20 16.1924
      vertex 20.182 -16 14.4246
    endloop
  endfacet
  facet normal -0.707107 0 0.707107
    outer loop
      vertex 19.4491 14.5734 13.6917
      vertex 21.8222 11.7557 16.0649
      vertex 21.9497 11.956 16.1924
    endloop
  endfacet
  facet normal -0.707107 0 0.707107
    outer loop
      vertex 19.4491 -14.5734 13.6917
      vertex 20.182 -16 14.4246
      vertex 19.4304 -4.15823 13.673
    endloop
  endfacet
  facet normal -0.707107 0 0.707107
    outer loop
      vertex 18.2632 -16.8817 12.5059
      vertex 21.9497 -20 16.1924
      vertex 19.4491 -17.4266 13.6917
    endloop
  endfacet
  facet normal -0.707107 0 0.707107
    outer loop
      vertex 20.344 8.13473 14.5866
      vertex 21.8222 11.7557 16.0649
      vertex 18.2632 15.1183 12.5059
    endloop
  endfacet
  facet normal -0.707107 0 0.707107
    outer loop
      vertex 20.344 8.13473 14.5866
      vertex 18.2632 15.1183 12.5059
      vertex 15.7574 20 10
    endloop
  endfacet
  facet normal -0.707107 0 0.707107
    outer loop
      vertex 19.4491 14.5734 13.6917
      vertex 21.9497 11.956 16.1924
      vertex 20.182 16 14.4246
    endloop
  endfacet
  facet normal -0.707107 0 0.707107
    outer loop
      vertex 15.7574 20 10
      vertex 18.2632 16.8817 12.5059
      vertex 21.9497 20 16.1924
    endloop
  endfacet
  facet normal -0.707107 0 0.707107
    outer loop
      vertex 18.2632 16.8817 12.5059
      vertex 19.4491 17.4266 13.6917
      vertex 21.9497 20 16.1924
    endloop
  endfacet
  facet normal -0.707107 0 0.707107
    outer loop
      vertex 19.4491 17.4266 13.6917
      vertex 20.182 16 14.4246
      vertex 21.9497 20 16.1924
    endloop
  endfacet
  facet normal -0.707107 0 0.707107
    outer loop
      vertex 18.2632 15.1183 12.5059
      vertex 21.8222 11.7557 16.0649
      vertex 19.4491 14.5734 13.6917
    endloop
  endfacet
  facet normal -0.707107 0 0.707107
    outer loop
      vertex 19.4304 -4.15823 13.673
      vertex 21.9497 -20 16.1924
      vertex 20.344 -8.13473 14.5866
    endloop
  endfacet
  facet normal 0 -1 0
    outer loop
      vertex 21.9497 -20 16.1924
      vertex 15.7574 -20 10
      vertex 17 -20 10
    endloop
  endfacet
  facet normal 0 -1 0
    outer loop
      vertex 17 -20 7
      vertex 21.9497 -20 16.1924
      vertex 17 -20 10
    endloop
  endfacet
  facet normal 0 -1 0
    outer loop
      vertex 17 -20 7
      vertex 24.0711 -20 14.0711
      vertex 21.9497 -20 16.1924
    endloop
  endfacet
  facet normal 0.707107 0 -0.707107
    outer loop
      vertex 20.3845 -15.1183 10.3845
      vertex 17 -20 7
      vertex 17 20 7
    endloop
  endfacet
  facet normal 0.707107 0 -0.707107
    outer loop
      vertex 21.5517 -4.15823 11.5517
      vertex 24.0711 -20 14.0711
      vertex 17 20 7
    endloop
  endfacet
  facet normal 0.707107 0 -0.707107
    outer loop
      vertex 20.3845 15.1183 10.3845
      vertex 22.4653 8.13473 12.4653
      vertex 17 20 7
    endloop
  endfacet
  facet normal 0.707107 0 -0.707107
    outer loop
      vertex 22.4653 8.13473 12.4653
      vertex 21.5517 4.15823 11.5517
      vertex 17 20 7
    endloop
  endfacet
  facet normal 0.707107 0 -0.707107
    outer loop
      vertex 23.9435 -11.7557 13.9435
      vertex 24.0711 -11.956 14.0711
      vertex 24.0711 -20 14.0711
    endloop
  endfacet
  facet normal 0.707107 0 -0.707107
    outer loop
      vertex 21.5517 4.15823 11.5517
      vertex 21.2426 0 11.2426
      vertex 17 20 7
    endloop
  endfacet
  facet normal 0.707107 0 -0.707107
    outer loop
      vertex 21.2426 0 11.2426
      vertex 21.5517 -4.15823 11.5517
      vertex 17 20 7
    endloop
  endfacet
  facet normal 0.707107 0 -0.707107
    outer loop
      vertex 21.5704 -17.4266 11.5704
      vertex 22.3033 -16 12.3033
      vertex 24.0711 -20 14.0711
    endloop
  endfacet
  facet normal 0.707107 0 -0.707107
    outer loop
      vertex 21.5704 -14.5734 11.5704
      vertex 20.3845 -15.1183 10.3845
      vertex 17 20 7
    endloop
  endfacet
  facet normal 0.707107 0 -0.707107
    outer loop
      vertex 20.3845 -16.8817 10.3845
      vertex 17 -20 7
      vertex 20.3845 -15.1183 10.3845
    endloop
  endfacet
  facet normal 0.707107 0 -0.707107
    outer loop
      vertex 24.0711 -20 14.0711
      vertex 17 -20 7
      vertex 20.3845 -16.8817 10.3845
    endloop
  endfacet
  facet normal 0.707107 0 -0.707107
    outer loop
      vertex 24.0711 -20 14.0711
      vertex 20.3845 -16.8817 10.3845
      vertex 21.5704 -17.4266 11.5704
    endloop
  endfacet
  facet normal 0.707107 0 -0.707107
    outer loop
      vertex 24.0711 -20 14.0711
      vertex 22.3033 -16 12.3033
      vertex 17 20 7
    endloop
  endfacet
  facet normal 0.707107 0 -0.707107
    outer loop
      vertex 21.5704 14.5734 11.5704
      vertex 24.0711 11.956 14.0711
      vertex 23.9435 11.7557 13.9435
    endloop
  endfacet
  facet normal 0.707107 0 -0.707107
    outer loop
      vertex 22.3033 -16 12.3033
      vertex 21.5704 -14.5734 11.5704
      vertex 17 20 7
    endloop
  endfacet
  facet normal 0.707107 0 -0.707107
    outer loop
      vertex 24.0711 20 14.0711
      vertex 20.3845 16.8817 10.3845
      vertex 17 20 7
    endloop
  endfacet
  facet normal 0.707107 0 -0.707107
    outer loop
      vertex 23.9435 11.7557 13.9435
      vertex 22.4653 8.13473 12.4653
      vertex 20.3845 15.1183 10.3845
    endloop
  endfacet
  facet normal 0.707107 0 -0.707107
    outer loop
      vertex 21.5704 14.5734 11.5704
      vertex 22.3033 16 12.3033
      vertex 24.0711 11.956 14.0711
    endloop
  endfacet
  facet normal 0.707107 0 -0.707107
    outer loop
      vertex 23.9435 11.7557 13.9435
      vertex 20.3845 15.1183 10.3845
      vertex 21.5704 14.5734 11.5704
    endloop
  endfacet
  facet normal 0.707107 0 -0.707107
    outer loop
      vertex 24.0711 20 14.0711
      vertex 24.0711 11.956 14.0711
      vertex 22.3033 16 12.3033
    endloop
  endfacet
  facet normal 0.707107 0 -0.707107
    outer loop
      vertex 24.0711 20 14.0711
      vertex 21.5704 17.4266 11.5704
      vertex 20.3845 16.8817 10.3845
    endloop
  endfacet
  facet normal 0.707107 0 -0.707107
    outer loop
      vertex 24.0711 20 14.0711
      vertex 22.3033 16 12.3033
      vertex 21.5704 17.4266 11.5704
    endloop
  endfacet
  facet normal 0.707107 0 -0.707107
    outer loop
      vertex 21.5517 -4.15823 11.5517
      vertex 22.4653 -8.13473 12.4653
      vertex 24.0711 -20 14.0711
    endloop
  endfacet
  facet normal 0.707107 0 -0.707107
    outer loop
      vertex 22.4653 -8.13473 12.4653
      vertex 23.9435 -11.7557 13.9435
      vertex 24.0711 -20 14.0711
    endloop
  endfacet
  facet normal 0.707107 0 -0.707107
    outer loop
      vertex 20.3845 16.8817 10.3845
      vertex 20.3845 15.1183 10.3845
      vertex 17 20 7
    endloop
  endfacet
  facet normal 0.707107 0 0.707107
    outer loop
      vertex 21.9497 20 16.1924
      vertex 21.9497 11.956 16.1924
      vertex 24.0711 11.956 14.0711
    endloop
  endfacet
  facet normal 0.707107 0 0.707107
    outer loop
      vertex 24.0711 20 14.0711
      vertex 21.9497 20 16.1924
      vertex 24.0711 11.956 14.0711
    endloop
  endfacet
  facet normal 0.525483 -0.669131 0.525483
    outer loop
      vertex 23.9435 11.7557 13.9435
      vertex 24.0711 11.956 14.0711
      vertex 21.9497 11.956 16.1924
    endloop
  endfacet
  facet normal 0.525483 -0.669131 0.525483
    outer loop
      vertex 21.8222 11.7557 16.0649
      vertex 23.9435 11.7557 13.9435
      vertex 21.9497 11.956 16.1924
    endloop
  endfacet
  facet normal 0.612372 -0.5 0.612372
    outer loop
      vertex 22.4653 8.13473 12.4653
      vertex 23.9435 11.7557 13.9435
      vertex 21.8222 11.7557 16.0649
    endloop
  endfacet
  facet normal 0.612372 -0.5 0.612372
    outer loop
      vertex 20.344 8.13473 14.5866
      vertex 22.4653 8.13473 12.4653
      vertex 21.8222 11.7557 16.0649
    endloop
  endfacet
  facet normal 0.672499 -0.309017 0.672499
    outer loop
      vertex 21.5517 4.15823 11.5517
      vertex 22.4653 8.13473 12.4653
      vertex 20.344 8.13473 14.5866
    endloop
  endfacet
  facet normal 0.672499 -0.309017 0.672499
    outer loop
      vertex 19.4304 4.15823 13.673
      vertex 21.5517 4.15823 11.5517
      vertex 20.344 8.13473 14.5866
    endloop
  endfacet
  facet normal 0.703233 -0.104528 0.703233
    outer loop
      vertex 21.2426 0 11.2426
      vertex 21.5517 4.15823 11.5517
      vertex 19.4304 4.15823 13.673
    endloop
  endfacet
  facet normal 0.703233 -0.104528 0.703233
    outer loop
      vertex 19.1213 0 13.364
      vertex 21.2426 0 11.2426
      vertex 19.4304 4.15823 13.673
    endloop
  endfacet
  facet normal 0.703233 0.104528 0.703233
    outer loop
      vertex 19.4304 -4.15823 13.673
      vertex 21.5517 -4.15823 11.5517
      vertex 21.2426 0 11.2426
    endloop
  endfacet
  facet normal 0.703233 0.104528 0.703233
    outer loop
      vertex 19.1213 0 13.364
      vertex 19.4304 -4.15823 13.673
      vertex 21.2426 0 11.2426
    endloop
  endfacet
  facet normal 0.672499 0.309017 0.672499
    outer loop
      vertex 20.344 -8.13473 14.5866
      vertex 22.4653 -8.13473 12.4653
      vertex 21.5517 -4.15823 11.5517
    endloop
  endfacet
  facet normal 0.672499 0.309017 0.672499
    outer loop
      vertex 19.4304 -4.15823 13.673
      vertex 20.344 -8.13473 14.5866
      vertex 21.5517 -4.15823 11.5517
    endloop
  endfacet
  facet normal 0.612372 0.5 0.612372
    outer loop
      vertex 21.8222 -11.7557 16.0649
      vertex 23.9435 -11.7557 13.9435
      vertex 22.4653 -8.13473 12.4653
    endloop
  endfacet
  facet normal 0.612372 0.5 0.612372
    outer loop
      vertex 20.344 -8.13473 14.5866
      vertex 21.8222 -11.7557 16.0649
      vertex 22.4653 -8.13473 12.4653
    endloop
  endfacet
  facet normal 0.525483 0.669131 0.525483
    outer loop
      vertex 24.0711 -11.956 14.0711
      vertex 23.9435 -11.7557 13.9435
      vertex 21.9497 -11.956 16.1924
    endloop
  endfacet
  facet normal 0.525483 0.669131 0.525483
    outer loop
      vertex 21.9497 -11.956 16.1924
      vertex 23.9435 -11.7557 13.9435
      vertex 21.8222 -11.7557 16.0649
    endloop
  endfacet
  facet normal 0.707107 0 0.707107
    outer loop
      vertex 21.9497 -11.956 16.1924
      vertex 21.9497 -20 16.1924
      vertex 24.0711 -20 14.0711
    endloop
  endfacet
  facet normal 0.707107 0 0.707107
    outer loop
      vertex 24.0711 -11.956 14.0711
      vertex 21.9497 -11.956 16.1924
      vertex 24.0711 -20 14.0711
    endloop
  endfacet
  facet normal 0.707107 0 0.707107
    outer loop
      vertex 20.3845 -16.8817 10.3845
      vertex 20.3845 -15.1183 10.3845
      vertex 18.2632 -15.1183 12.5059
    endloop
  endfacet
  facet normal 0.707107 0 0.707107
    outer loop
      vertex 18.2632 -16.8817 12.5059
      vertex 20.3845 -16.8817 10.3845
      vertex 18.2632 -15.1183 12.5059
    endloop
  endfacet
  facet normal 0.218508 0.951056 0.218508
    outer loop
      vertex 21.5704 -17.4266 11.5704
      vertex 20.3845 -16.8817 10.3845
      vertex 19.4491 -17.4266 13.6917
    endloop
  endfacet
  facet normal 0.218508 0.951056 0.218508
    outer loop
      vertex 19.4491 -17.4266 13.6917
      vertex 20.3845 -16.8817 10.3845
      vertex 18.2632 -16.8817 12.5059
    endloop
  endfacet
  facet normal -0.572061 0.587785 -0.572061
    outer loop
      vertex 22.3033 -16 12.3033
      vertex 21.5704 -17.4266 11.5704
      vertex 20.182 -16 14.4246
    endloop
  endfacet
  facet normal -0.572061 0.587785 -0.572061
    outer loop
      vertex 20.182 -16 14.4246
      vertex 21.5704 -17.4266 11.5704
      vertex 19.4491 -17.4266 13.6917
    endloop
  endfacet
  facet normal -0.572061 -0.587785 -0.572061
    outer loop
      vertex 21.5704 -14.5734 11.5704
      vertex 22.3033 -16 12.3033
      vertex 20.182 -16 14.4246
    endloop
  endfacet
  facet normal -0.572061 -0.587785 -0.572061
    outer loop
      vertex 19.4491 -14.5734 13.6917
      vertex 21.5704 -14.5734 11.5704
      vertex 20.182 -16 14.4246
    endloop
  endfacet
  facet normal 0.218508 -0.951056 0.218508
    outer loop
      vertex 20.3845 -15.1183 10.3845
      vertex 21.5704 -14.5734 11.5704
      vertex 19.4491 -14.5734 13.6917
    endloop
  endfacet
  facet normal 0.218508 -0.951056 0.218508
    outer loop
      vertex 18.2632 -15.1183 12.5059
      vertex 20.3845 -15.1183 10.3845
      vertex 19.4491 -14.5734 13.6917
    endloop
  endfacet
  facet normal 0.218508 0.951056 0.218508
    outer loop
      vertex 21.5704 14.5734 11.5704
      vertex 20.3845 15.1183 10.3845
      vertex 19.4491 14.5734 13.6917
    endloop
  endfacet
  facet normal 0.218508 0.951056 0.218508
    outer loop
      vertex 19.4491 14.5734 13.6917
      vertex 20.3845 15.1183 10.3845
      vertex 18.2632 15.1183 12.5059
    endloop
  endfacet
  facet normal 0.707107 0 0.707107
    outer loop
      vertex 20.3845 15.1183 10.3845
      vertex 20.3845 16.8817 10.3845
      vertex 18.2632 16.8817 12.5059
    endloop
  endfacet
  facet normal 0.707107 0 0.707107
    outer loop
      vertex 18.2632 15.1183 12.5059
      vertex 20.3845 15.1183 10.3845
      vertex 18.2632 16.8817 12.5059
    endloop
  endfacet
  facet normal -0.572061 0.587785 -0.572061
    outer loop
      vertex 22.3033 16 12.3033
      vertex 21.5704 14.5734 11.5704
      vertex 20.182 16 14.4246
    endloop
  endfacet
  facet normal -0.572061 0.587785 -0.572061
    outer loop
      vertex 20.182 16 14.4246
      vertex 21.5704 14.5734 11.5704
      vertex 19.4491 14.5734 13.6917
    endloop
  endfacet
  facet normal -0.572061 -0.587785 -0.572061
    outer loop
      vertex 21.5704 17.4266 11.5704
      vertex 22.3033 16 12.3033
      vertex 20.182 16 14.4246
    endloop
  endfacet
  facet normal -0.572061 -0.587785 -0.572061
    outer loop
      vertex 19.4491 17.4266 13.6917
      vertex 21.5704 17.4266 11.5704
      vertex 20.182 16 14.4246
    endloop
  endfacet
  facet normal 0.218508 -0.951056 0.218508
    outer loop
      vertex 20.3845 16.8817 10.3845
      vertex 21.5704 17.4266 11.5704
      vertex 19.4491 17.4266 13.6917
    endloop
  endfacet
  facet normal 0.218508 -0.951056 0.218508
    outer loop
      vertex 18.2632 16.8817 12.5059
      vertex 20.3845 16.8817 10.3845
      vertex 19.4491 17.4266 13.6917
    endloop
  endfacet
endsolid OpenSCAD_Model
